#N canvas 437 22 1003 856 10;
#X obj 298 203 comport 9600;
#X msg 226 160 devices;
#X msg 364 157 close;
#X msg 297 160 open 3;
#X obj 123 862 *~;
#X obj 485 301 tgl 15 0 empty empty empty 17 7 0 10 -262144 -1 -1 1
1;
#X msg 485 328 \; pd dsp \$1;
#X obj 258 928 env~;
#X floatatom 212 960 5 0 0 0 - - -, f 5;
#X obj 258 958 - 100;
#X obj 259 988 vu 15 120 empty empty -1 -8 0 10 -66577 -1 1 0;
#X text 354 415 cm;
#X floatatom 310 409 5 20 740 0 - - -, f 5;
#X floatatom 41 726 5 0 0 0 - - -, f 5;
#X msg 42 787 vis \$1 \$2;
#X obj 93 725 tgl 15 0 empty empty empty 17 7 0 10 -262144 -1 -1 0
1;
#X obj 41 753 pack f f;
#X obj 122 934 dac~ 1 2;
#X obj 120 496 mod 100;
#X text 97 458 from 20 to 700 cm;
#X floatatom 311 518 5 0 0 0 - - -, f 5;
#X text 279 631 oct;
#X obj 311 611 * -12;
#X floatatom 311 633 5 0 0 0 - - -, f 5;
#X obj 120 522 div 20;
#N canvas 0 23 450 300 PentaCH 0;
#X obj 47 64 inlet;
#X obj 57 186 outlet;
#X obj 47 97 sel 0 1 2 3 4, f 44;
#X msg 47 119 2;
#X msg 108 121 4;
#X msg 168 120 7;
#X msg 230 122 9;
#X msg 291 122 11;
#X connect 0 0 2 0;
#X connect 2 0 3 0;
#X connect 2 1 4 0;
#X connect 2 2 5 0;
#X connect 2 3 6 0;
#X connect 2 4 7 0;
#X connect 3 0 1 0;
#X connect 4 0 1 0;
#X connect 5 0 1 0;
#X connect 7 0 1 0;
#X restore 120 632 pd PentaCH;
#X floatatom 121 679 5 0 0 0 - - -, f 5;
#X msg 121 698 next \$1;
#X floatatom 290 861 5 0 0 0 - - -, f 5;
#X obj 121 657 +, f 17;
#X obj 119 604 spigot;
#X obj 156 574 !=;
#X obj 120 545 t f f;
#X obj 687 504 tgl 15 0 empty empty empty 17 7 0 10 -262144 -1 -1 0
1;
#X obj 686 482 ==;
#X obj 686 552 f;
#X obj 686 527 metro 5000;
#X floatatom 412 692 5 0 0 0 - - -, f 5;
#X obj 412 670 +, f 17;
#X obj 410 617 spigot;
#X obj 447 587 !=;
#X obj 411 558 t f f;
#X obj 411 471 mod 115;
#X obj 411 492 div 23;
#N canvas 0 23 450 300 PentaCH2 0;
#X obj 47 64 inlet;
#X obj 57 186 outlet;
#X obj 47 97 sel 0 1 2 3 4, f 44;
#X msg 47 119 7;
#X msg 108 121 9;
#X msg 168 120 11;
#X msg 230 122 2;
#X msg 291 122 4;
#X connect 0 0 2 0;
#X connect 2 0 3 0;
#X connect 2 1 4 0;
#X connect 2 2 5 0;
#X connect 2 3 6 0;
#X connect 2 4 7 0;
#X connect 3 0 1 0;
#X connect 4 0 1 0;
#X connect 5 0 1 0;
#X connect 7 0 1 0;
#X restore 411 645 pd PentaCH2;
#X obj 311 441 t f f f f;
#X obj 411 537 * -1;
#X msg 411 719 next \$1;
#X obj 289 787 vsl 15 50 0 1 0 0 empty empty empty 0 -9 0 10 -262144
-1 -1 4900 1;
#X obj 390 902 +~, f 5;
#X obj 411 514 - 4;
#X obj 311 561 -2;
#X obj 311 490 div 120;
#X floatatom 311 583 5 0 0 0 - - -, f 5;
#X obj 123 814 clone CoreSin 20;
#X obj 411 812 clone Core2 20;
#X obj 179 216 list;
#X obj 363 359 tgl 15 0 empty empty empty 17 7 0 10 -262144 -1 -1 0
1;
#X obj 363 379 + 1;
#X obj 234 293 spigot;
#X obj 298 225 t i b;
#X obj 330 249 tgl 15 0 empty empty empty 17 7 0 10 -262144 -1 -1 0
1;
#X obj 285 322 spigot;
#X obj 330 269 - 1;
#X obj 330 291 * -1;
#X obj 233 345 +;
#X floatatom 233 367 5 0 0 0 - - -, f 5;
#X obj 233 323 << 8;
#X floatatom 174 345 5 0 0 0 - - -, f 5;
#X floatatom 285 343 5 0 0 0 - - -, f 5;
#X obj 311 539 - 6;
#X obj 522 449 - 800;
#X msg 522 491 \$1 25;
#X obj 479 875 noise~;
#X obj 480 911 bp~ 100 1000;
#X obj 522 512 line;
#X floatatom 549 535 5 0 0 0 - - -, f 5;
#X obj 522 470 * -1.8;
#X obj 516 852 / 1.8;
#X obj 480 932 *~ 10;
#X connect 0 0 60 0;
#X connect 1 0 0 0;
#X connect 2 0 0 0;
#X connect 3 0 0 0;
#X connect 4 0 7 0;
#X connect 4 0 17 1;
#X connect 4 0 17 0;
#X connect 5 0 6 0;
#X connect 7 0 8 0;
#X connect 7 0 9 0;
#X connect 9 0 10 0;
#X connect 12 0 45 0;
#X connect 13 0 16 0;
#X connect 14 0 54 0;
#X connect 15 0 16 1;
#X connect 16 0 14 0;
#X connect 18 0 24 0;
#X connect 20 0 70 0;
#X connect 22 0 23 0;
#X connect 23 0 29 1;
#X connect 23 0 38 1;
#X connect 24 0 32 0;
#X connect 25 0 29 0;
#X connect 26 0 27 0;
#X connect 27 0 54 0;
#X connect 29 0 26 0;
#X connect 30 0 25 0;
#X connect 31 0 30 1;
#X connect 32 0 30 0;
#X connect 32 0 31 1;
#X connect 32 1 31 0;
#X connect 33 0 36 0;
#X connect 34 0 33 0;
#X connect 36 0 35 0;
#X connect 37 0 47 0;
#X connect 38 0 37 0;
#X connect 39 0 44 0;
#X connect 40 0 39 1;
#X connect 41 0 39 0;
#X connect 41 0 40 1;
#X connect 41 1 40 0;
#X connect 42 0 43 0;
#X connect 43 0 50 0;
#X connect 44 0 38 0;
#X connect 45 0 18 0;
#X connect 45 1 42 0;
#X connect 45 2 52 0;
#X connect 45 3 71 0;
#X connect 46 0 41 0;
#X connect 47 0 55 0;
#X connect 48 0 4 1;
#X connect 48 0 28 0;
#X connect 49 0 4 0;
#X connect 50 0 46 0;
#X connect 51 0 53 0;
#X connect 52 0 20 0;
#X connect 53 0 22 0;
#X connect 54 0 49 0;
#X connect 55 0 49 1;
#X connect 57 0 58 0;
#X connect 59 0 67 0;
#X connect 60 0 62 0;
#X connect 60 0 59 0;
#X connect 60 1 61 0;
#X connect 61 0 59 1;
#X connect 61 0 63 0;
#X connect 62 0 65 1;
#X connect 62 0 69 0;
#X connect 63 0 64 0;
#X connect 64 0 62 1;
#X connect 65 0 66 0;
#X connect 66 0 12 0;
#X connect 67 0 65 0;
#X connect 67 0 68 0;
#X connect 70 0 51 0;
#X connect 71 0 77 0;
#X connect 72 0 75 0;
#X connect 73 0 74 0;
#X connect 74 0 79 0;
#X connect 75 0 74 1;
#X connect 75 0 76 0;
#X connect 75 0 78 0;
#X connect 77 0 72 0;
#X connect 78 0 74 2;
#X connect 79 0 49 1;
