#N canvas 638 151 906 744 10;
#X obj 174 111 comport 9600;
#X msg 102 68 devices;
#X msg 238 67 close;
#X floatatom 175 173 5 0 0 0 - - -, f 5;
#X msg 173 68 open 3;
#X obj 175 214 * 10;
#X obj 173 510 *~;
#X obj 236 460 vsl 15 50 0 0.1 0 0 empty empty empty 0 -9 0 10 -262144
-1 -1 0 1;
#X obj 413 49 tgl 15 0 empty empty empty 17 7 0 10 -262144 -1 -1 1
1;
#X msg 413 76 \; pd dsp \$1;
#X obj 70 584 env~;
#X obj 172 613 dac~ 1 2;
#X floatatom 24 616 5 0 0 0 - - -, f 5;
#X obj 70 614 - 100;
#X obj 71 644 vu 15 120 empty empty -1 -8 0 10 -66577 -1 1 0;
#X text 235 267 cm;
#X floatatom 191 267 5 0 0 0 - - -, f 5;
#X obj 188 360 clone Core 8;
#X floatatom 364 260 5 0 0 0 - - -, f 5;
#X msg 365 321 vis \$1 \$2;
#X obj 416 259 tgl 15 0 empty empty empty 17 7 0 10 -262144 -1 -1 1
1;
#X obj 364 287 pack f f;
#X connect 0 0 3 0;
#X connect 1 0 0 0;
#X connect 2 0 0 0;
#X connect 3 0 5 0;
#X connect 4 0 0 0;
#X connect 5 0 16 0;
#X connect 6 0 10 0;
#X connect 6 0 11 0;
#X connect 6 0 11 1;
#X connect 7 0 6 1;
#X connect 8 0 9 0;
#X connect 10 0 12 0;
#X connect 10 0 13 0;
#X connect 13 0 14 0;
#X connect 17 0 6 0;
#X connect 18 0 21 0;
#X connect 19 0 17 0;
#X connect 20 0 21 1;
#X connect 21 0 19 0;
