#N canvas 708 202 587 391 10;
#X obj 97 20 inlet;
#X obj 14 319 outlet~;
#X obj 15 205 *~, f 21;
#X obj 159 143 *~;
#X obj 159 171 *~;
#X obj 159 115 line~;
#X obj 97 42 t f b;
#X obj 97 69 mtof;
#X obj 344 108 float \$1;
#X obj 344 82 bng 15 250 50 0 empty empty empty 17 7 0 10 -262144 -1
-1;
#X floatatom 344 130 5 0 0 0 - - -, f 5;
#X obj 15 120 noise~;
#X obj 15 142 bp~ 100 1000;
#X obj 97 91 * 1.2;
#X obj 158 68 pack 1 3000;
#X obj 241 90 pack 0 6000;
#X obj 241 68 del 3100;
#X obj 15 170 *~ 50;
#X obj 139 319 outlet~;
#X obj 15 245 *~;
#X obj 138 244 *~;
#X obj 344 149 mod 2;
#X obj 344 171 - 1;
#X obj 344 193 * -1;
#X obj 342 51 loadbang;
#X connect 0 0 6 0;
#X connect 2 0 19 0;
#X connect 2 0 20 0;
#X connect 3 0 4 0;
#X connect 3 0 4 1;
#X connect 4 0 2 1;
#X connect 5 0 3 0;
#X connect 5 0 3 1;
#X connect 6 0 7 0;
#X connect 6 1 14 0;
#X connect 6 1 16 0;
#X connect 7 0 12 1;
#X connect 7 0 13 0;
#X connect 8 0 10 0;
#X connect 9 0 8 0;
#X connect 10 0 21 0;
#X connect 11 0 12 0;
#X connect 12 0 17 0;
#X connect 13 0 12 2;
#X connect 14 0 5 0;
#X connect 15 0 5 0;
#X connect 16 0 15 0;
#X connect 17 0 2 0;
#X connect 19 0 1 0;
#X connect 20 0 18 0;
#X connect 21 0 19 1;
#X connect 21 0 22 0;
#X connect 22 0 23 0;
#X connect 23 0 20 1;
#X connect 24 0 9 0;
