#N canvas 408 221 745 405 10;
#X obj 292 11 loadbang;
#X obj 482 144 float \$1;
#X floatatom 482 169 5 0 0 0 - - -, f 5;
#X obj 482 188 * 12;
#X obj 7 235 inlet~;
#X obj 292 33 t b b b;
#X obj 69 210 +;
#X obj 69 234 mtof;
#X obj 156 210 +;
#X obj 156 234 mtof;
#X obj 244 210 +;
#X obj 244 234 mtof;
#X obj 337 210 +;
#X obj 337 234 mtof;
#X obj 429 211 +;
#X obj 429 235 mtof;
#X msg 244 168 31;
#X obj 37 378 outlet~;
#X msg 69 168 33;
#X msg 156 168 26;
#X msg 337 168 35;
#X msg 429 169 28;
#X text 61 37 La - Re - Sol - Si - Mi;
#X obj 36 284 bp~ 100 120;
#X obj 123 284 bp~ 100 120;
#X obj 211 284 bp~ 100 120;
#X obj 304 284 bp~ 100 120;
#X obj 396 285 bp~ 100 120;
#X connect 0 0 5 0;
#X connect 1 0 2 0;
#X connect 2 0 3 0;
#X connect 3 0 14 1;
#X connect 3 0 12 1;
#X connect 3 0 10 1;
#X connect 3 0 8 1;
#X connect 3 0 6 1;
#X connect 4 0 23 0;
#X connect 4 0 24 0;
#X connect 4 0 25 0;
#X connect 4 0 26 0;
#X connect 4 0 27 0;
#X connect 5 0 21 0;
#X connect 5 0 20 0;
#X connect 5 0 16 0;
#X connect 5 0 19 0;
#X connect 5 0 18 0;
#X connect 5 1 1 0;
#X connect 6 0 7 0;
#X connect 7 0 23 1;
#X connect 8 0 9 0;
#X connect 9 0 24 1;
#X connect 10 0 11 0;
#X connect 11 0 25 1;
#X connect 12 0 13 0;
#X connect 13 0 26 1;
#X connect 14 0 15 0;
#X connect 15 0 27 1;
#X connect 16 0 10 0;
#X connect 18 0 6 0;
#X connect 19 0 8 0;
#X connect 20 0 12 0;
#X connect 21 0 14 0;
#X connect 23 0 17 0;
#X connect 24 0 17 0;
#X connect 25 0 17 0;
#X connect 26 0 17 0;
#X connect 27 0 17 0;
