#N canvas 708 202 587 391 10;
#X obj 97 20 inlet;
#X obj 14 319 outlet~;
#X obj 15 205 *~, f 21;
#X obj 159 143 *~;
#X obj 159 171 *~;
#X obj 159 115 line~;
#X obj 97 42 t f b;
#X obj 97 69 mtof;
#X obj 15 120 noise~;
#X obj 15 142 bp~ 100 1000;
#X obj 97 91 * 1.2;
#X obj 241 90 pack 0 3000;
#X obj 158 68 pack 1 1300;
#X obj 241 68 del 1400;
#X obj 15 170 *~ 5;
#X connect 0 0 6 0;
#X connect 2 0 1 0;
#X connect 3 0 4 0;
#X connect 3 0 4 1;
#X connect 4 0 2 1;
#X connect 5 0 3 0;
#X connect 5 0 3 1;
#X connect 6 0 7 0;
#X connect 6 1 12 0;
#X connect 6 1 13 0;
#X connect 7 0 9 1;
#X connect 7 0 10 0;
#X connect 8 0 9 0;
#X connect 9 0 14 0;
#X connect 10 0 9 2;
#X connect 11 0 5 0;
#X connect 12 0 5 0;
#X connect 13 0 11 0;
#X connect 14 0 2 0;
