#N canvas 1132 616 450 300 10;
#X obj 25 11 inlet;
#X obj 52 253 outlet~;
#X obj 52 196 *~;
#X obj 197 147 *~;
#X obj 197 175 *~;
#X obj 197 119 line~;
#X obj 52 75 mtof;
#X obj 52 126 osc~;
#X obj 52 148 *~ 0.5;
#X obj 25 33 t b f b;
#X obj 113 117 random 50;
#X obj 113 139 / 100;
#X obj 196 96 pack 1 200;
#X obj 288 74 del 600;
#X obj 288 96 pack 0 5000;
#X obj 113 161 + 0.011;
#X connect 0 0 9 0;
#X connect 2 0 1 0;
#X connect 3 0 4 0;
#X connect 3 0 4 1;
#X connect 4 0 2 1;
#X connect 5 0 3 0;
#X connect 5 0 3 1;
#X connect 6 0 7 0;
#X connect 7 0 8 0;
#X connect 8 0 2 0;
#X connect 9 0 12 0;
#X connect 9 0 13 0;
#X connect 9 1 6 0;
#X connect 9 2 10 0;
#X connect 10 0 11 0;
#X connect 11 0 15 0;
#X connect 12 0 5 0;
#X connect 13 0 14 0;
#X connect 14 0 5 0;
#X connect 15 0 8 1;
