#N canvas 603 281 473 381 10;
#X obj 269 151 inlet;
#X obj 37 89 float \$1;
#X obj 37 63 bng 15 250 50 0 empty empty empty 17 7 0 10 -262144 -1
-1;
#X floatatom 37 111 5 0 0 0 - - -, f 5;
#X obj 37 33 loadbang;
#X obj 37 178 * 200;
#X obj 37 130 + 1;
#X obj 37 202 delread4~ vardelay;
#X obj 37 152 t f f;
#X obj 192 174 * -0.1;
#X obj 268 204 +;
#X obj 268 226 clip 0 0.5;
#X obj 268 248 * 1.8;
#X obj 268 270 pack f 100;
#X obj 268 292 line~;
#X obj 36 336 *~;
#X obj 36 358 outlet~;
#X obj 385 107 delwrite~ vardelay 2000;
#X obj 382 68 inlet~;
#X connect 0 0 10 0;
#X connect 1 0 3 0;
#X connect 2 0 1 0;
#X connect 3 0 6 0;
#X connect 4 0 2 0;
#X connect 5 0 7 0;
#X connect 6 0 8 0;
#X connect 7 0 15 0;
#X connect 8 0 5 0;
#X connect 8 1 9 0;
#X connect 9 0 10 1;
#X connect 10 0 11 0;
#X connect 11 0 12 0;
#X connect 12 0 13 0;
#X connect 13 0 14 0;
#X connect 15 0 16 0;
#X connect 18 0 17 0;
