#N canvas 0 93 1493 860 10;
#X msg 439 88 devices;
#X msg 577 88 close;
#X obj 724 91 tgl 15 0 empty empty empty 17 7 0 10 -262144 -1 -1 1
1;
#X msg 724 125 \; pd dsp \$1;
#X text 526 357 cm, f 3;
#X obj 436 886 dac~ 1 2, f 16;
#X floatatom 414 630 5 0 0 0 - - -, f 5;
#X obj 403 571 vsl 15 50 0 1 0 0 empty empty empty 0 -9 0 10 -262144
-1 -1 4410 1;
#X obj 534 178 spigot;
#X obj 476 281 spigot;
#X obj 637 252 * -1;
#X obj 477 315 +;
#X obj 724 19 loadbang;
#X obj 724 41 bng 15 250 50 0 empty empty empty 17 7 0 10 -262144 -1
-1;
#X obj 403 519 loadbang;
#X obj 896 424 tgl 15 0 empty empty empty 17 7 0 10 -262144 -1 -1 1
1;
#X obj 511 112 comport 0 9600;
#X obj 637 156 & 128;
#X obj 1188 345 t b b, f 14;
#X msg 1268 373 1;
#X obj 1268 394 + 0, f 9;
#X obj 1268 436 t f f, f 9;
#X obj 1268 457 sel 0;
#X obj 1187 583 text define sensor-read;
#X msg 1377 511 clear;
#X obj 1268 478 t b b;
#X msg 1187 548 write /home/pi/Documents/MusicHall/sensor-log.txt;
#X obj 1188 479 list;
#X obj 534 200 t f f, f 7;
#X obj 1188 324 metro 100;
#X obj 1268 415 mod 51;
#X floatatom 477 349 5 0 0 0 - - -, f 5;
#X obj 1188 511 text set sensor-read, f 23;
#X obj 534 252 << 7;
#X obj 897 456 metro 100;
#X obj 511 140 t f f f;
#X obj 1185 287 tgl 15 0 empty empty empty 17 7 0 10 -262144 -1 -1
0 1;
#X obj 61 383 spigot;
#X obj 477 411 spigot;
#X floatatom 61 438 5 0 0 0 - - -, f 5;
#X floatatom 477 436 5 0 0 0 - - -, f 5;
#X obj 580 287 == 0;
#X obj 117 383 spigot;
#X floatatom 117 438 5 0 0 0 - - -, f 5;
#N canvas 41 95 649 471 mi 0;
#X obj 36 409 *~, f 28;
#X obj 98 148 mtof;
#X obj 229 220 *~;
#X obj 229 192 line~;
#X obj 146 94 t b b;
#X obj 36 329 noise~;
#X obj 36 360 bp~ 100 1000, f 18;
#X obj 98 214 line;
#X floatatom 125 247 5 0 0 0 - - -, f 5;
#X obj 168 336 / 1.05;
#X obj 146 63 sel 1 0;
#X obj 146 36 inlet;
#X obj 36 491 outlet~;
#X obj 146 147 pack 0.7 150;
#X obj 246 147 pack 0 550;
#X obj 262 407 *~, f 28;
#X obj 262 358 bp~ 100 1000, f 18;
#X obj 394 334 / 1.05;
#X obj 486 405 *~, f 28;
#X obj 486 356 bp~ 100 1000, f 18;
#X obj 618 332 / 1.05;
#X obj 363 139 mtof;
#X obj 363 205 line;
#X floatatom 390 238 5 0 0 0 - - -, f 5;
#X obj 512 140 mtof;
#X obj 512 206 line;
#X floatatom 539 239 5 0 0 0 - - -, f 5;
#X obj 486 379 *~ 0.8;
#X obj 262 381 *~ 5;
#X obj 36 383 *~ 20;
#X msg 100 117 88;
#X msg 365 108 85;
#X msg 514 109 95;
#X connect 0 0 12 0;
#X connect 1 0 7 0;
#X connect 2 0 0 1;
#X connect 2 0 15 1;
#X connect 2 0 18 1;
#X connect 3 0 2 0;
#X connect 3 0 2 1;
#X connect 4 0 13 0;
#X connect 4 1 30 0;
#X connect 4 1 31 0;
#X connect 4 1 32 0;
#X connect 5 0 6 0;
#X connect 5 0 16 0;
#X connect 5 0 19 0;
#X connect 6 0 29 0;
#X connect 7 0 6 1;
#X connect 7 0 8 0;
#X connect 7 0 9 0;
#X connect 9 0 6 2;
#X connect 10 0 4 0;
#X connect 10 1 14 0;
#X connect 11 0 10 0;
#X connect 13 0 3 0;
#X connect 14 0 3 0;
#X connect 15 0 12 0;
#X connect 16 0 28 0;
#X connect 17 0 16 2;
#X connect 18 0 12 0;
#X connect 19 0 27 0;
#X connect 20 0 19 2;
#X connect 21 0 22 0;
#X connect 22 0 23 0;
#X connect 22 0 16 1;
#X connect 22 0 17 0;
#X connect 24 0 25 0;
#X connect 25 0 26 0;
#X connect 25 0 19 1;
#X connect 25 0 20 0;
#X connect 27 0 18 0;
#X connect 28 0 15 0;
#X connect 29 0 0 0;
#X connect 30 0 1 0;
#X connect 31 0 21 0;
#X connect 32 0 24 0;
#X restore 239 518 pd mi;
#X obj 177 385 spigot;
#X floatatom 177 439 5 0 0 0 - - -, f 5;
#X obj 240 386 spigot;
#X floatatom 240 438 5 0 0 0 - - -, f 5;
#X obj 301 385 spigot;
#X floatatom 301 440 5 0 0 0 - - -, f 5;
#X obj 480 612 vu 15 120 empty empty -1 -8 0 10 -66577 -1 1 0;
#X obj 476 560 env~;
#X floatatom 519 582 5 0 0 0 - - -, f 5;
#X obj 476 582 - 100;
#X obj 580 226 & 112;
#X obj 580 253 >> 4;
#X obj 637 197 - 128;
#X obj 724 61 delay 2000;
#N canvas 49 96 566 356 si 0;
#X obj 36 409 *~, f 28;
#X obj 98 148 mtof;
#X obj 229 220 *~;
#X obj 229 192 line~;
#X obj 146 94 t b b;
#X obj 36 329 noise~;
#X obj 36 360 bp~ 100 1000, f 18;
#X obj 98 214 line;
#X floatatom 125 247 5 0 0 0 - - -, f 5;
#X obj 168 336 / 1.05;
#X obj 146 63 sel 1 0;
#X obj 146 36 inlet;
#X obj 36 491 outlet~;
#X obj 146 147 pack 0.7 150;
#X obj 246 147 pack 0 550;
#X obj 262 407 *~, f 28;
#X obj 262 358 bp~ 100 1000, f 18;
#X obj 394 334 / 1.05;
#X obj 486 405 *~, f 28;
#X obj 486 356 bp~ 100 1000, f 18;
#X obj 618 332 / 1.05;
#X obj 363 139 mtof;
#X obj 363 205 line;
#X floatatom 390 238 5 0 0 0 - - -, f 5;
#X obj 512 140 mtof;
#X obj 512 206 line;
#X floatatom 539 239 5 0 0 0 - - -, f 5;
#X obj 486 379 *~ 0.8;
#X obj 262 381 *~ 5;
#X obj 36 383 *~ 20;
#X msg 100 116 83;
#X msg 365 108 81;
#X msg 514 109 91;
#X connect 0 0 12 0;
#X connect 1 0 7 0;
#X connect 2 0 0 1;
#X connect 2 0 15 1;
#X connect 2 0 18 1;
#X connect 3 0 2 0;
#X connect 3 0 2 1;
#X connect 4 0 13 0;
#X connect 4 1 30 0;
#X connect 4 1 31 0;
#X connect 4 1 32 0;
#X connect 5 0 6 0;
#X connect 5 0 16 0;
#X connect 5 0 19 0;
#X connect 6 0 29 0;
#X connect 7 0 6 1;
#X connect 7 0 8 0;
#X connect 7 0 9 0;
#X connect 9 0 6 2;
#X connect 10 0 4 0;
#X connect 10 1 14 0;
#X connect 11 0 10 0;
#X connect 13 0 3 0;
#X connect 14 0 3 0;
#X connect 15 0 12 0;
#X connect 16 0 28 0;
#X connect 17 0 16 2;
#X connect 18 0 12 0;
#X connect 19 0 27 0;
#X connect 20 0 19 2;
#X connect 21 0 22 0;
#X connect 22 0 23 0;
#X connect 22 0 16 1;
#X connect 22 0 17 0;
#X connect 24 0 25 0;
#X connect 25 0 26 0;
#X connect 25 0 19 1;
#X connect 25 0 20 0;
#X connect 27 0 18 0;
#X connect 28 0 15 0;
#X connect 29 0 0 0;
#X connect 30 0 1 0;
#X connect 31 0 21 0;
#X connect 32 0 24 0;
#X restore 300 518 pd si;
#N canvas 26 107 750 546 re 0;
#X obj 36 409 *~, f 28;
#X obj 98 148 mtof;
#X obj 229 220 *~;
#X obj 229 192 line~;
#X obj 146 94 t b b;
#X obj 36 329 noise~;
#X obj 36 360 bp~ 100 1000, f 18;
#X obj 98 214 line;
#X floatatom 125 247 5 0 0 0 - - -, f 5;
#X obj 168 336 / 1.05;
#X obj 146 63 sel 1 0;
#X obj 146 36 inlet;
#X obj 36 491 outlet~;
#X obj 146 147 pack 0.7 150;
#X obj 246 147 pack 0 550;
#X obj 262 407 *~, f 28;
#X obj 262 358 bp~ 100 1000, f 18;
#X obj 394 334 / 1.05;
#X obj 486 405 *~, f 28;
#X obj 486 356 bp~ 100 1000, f 18;
#X obj 618 332 / 1.05;
#X obj 363 139 mtof;
#X obj 363 205 line;
#X floatatom 390 238 5 0 0 0 - - -, f 5;
#X obj 512 140 mtof;
#X obj 512 206 line;
#X floatatom 539 239 5 0 0 0 - - -, f 5;
#X obj 486 379 *~ 0.8;
#X obj 262 381 *~ 5;
#X obj 36 383 *~ 20;
#X msg 100 117 86;
#X msg 514 109 84;
#X msg 365 108 79;
#X connect 0 0 12 0;
#X connect 1 0 7 0;
#X connect 2 0 0 1;
#X connect 2 0 15 1;
#X connect 2 0 18 1;
#X connect 3 0 2 0;
#X connect 3 0 2 1;
#X connect 4 0 13 0;
#X connect 4 1 30 0;
#X connect 4 1 32 0;
#X connect 4 1 31 0;
#X connect 5 0 6 0;
#X connect 5 0 16 0;
#X connect 5 0 19 0;
#X connect 6 0 29 0;
#X connect 7 0 6 1;
#X connect 7 0 8 0;
#X connect 7 0 9 0;
#X connect 9 0 6 2;
#X connect 10 0 4 0;
#X connect 10 1 14 0;
#X connect 11 0 10 0;
#X connect 13 0 3 0;
#X connect 14 0 3 0;
#X connect 15 0 12 0;
#X connect 16 0 28 0;
#X connect 17 0 16 2;
#X connect 18 0 12 0;
#X connect 19 0 27 0;
#X connect 20 0 19 2;
#X connect 21 0 22 0;
#X connect 22 0 23 0;
#X connect 22 0 16 1;
#X connect 22 0 17 0;
#X connect 24 0 25 0;
#X connect 25 0 26 0;
#X connect 25 0 19 1;
#X connect 25 0 20 0;
#X connect 27 0 18 0;
#X connect 28 0 15 0;
#X connect 29 0 0 0;
#X connect 30 0 1 0;
#X connect 31 0 24 0;
#X connect 32 0 21 0;
#X restore 116 518 pd re;
#X obj 62 684 *~ 0.7, f 8;
#X obj 301 686 *~ 0.7, f 8;
#X msg 511 88 open 0;
#X obj 300 491 tgl 15 0 empty empty empty 17 7 0 10 -262144 -1 -1 0
1;
#X obj 240 491 tgl 15 0 empty empty empty 17 7 0 10 -262144 -1 -1 0
1;
#X obj 176 490 tgl 15 0 empty empty empty 17 7 0 10 -262144 -1 -1 0
1;
#X obj 116 490 tgl 15 0 empty empty empty 17 7 0 10 -262144 -1 -1 0
1;
#X obj 60 490 tgl 15 0 empty empty empty 17 7 0 10 -262144 -1 -1 0
1;
#X text 516 434 sensor 0;
#X obj 534 225 & 15;
#N canvas 2 121 740 531 sol 0;
#X obj 36 409 *~, f 28;
#X obj 98 148 mtof;
#X obj 229 220 *~;
#X obj 229 192 line~;
#X obj 146 94 t b b;
#X obj 36 329 noise~;
#X obj 36 360 bp~ 100 1000, f 18;
#X obj 98 214 line;
#X floatatom 125 247 5 0 0 0 - - -, f 5;
#X obj 168 336 / 1.05;
#X obj 146 63 sel 1 0;
#X obj 146 36 inlet;
#X obj 36 491 outlet~;
#X obj 146 147 pack 0.7 150;
#X obj 246 147 pack 0 550;
#X obj 262 407 *~, f 28;
#X obj 262 358 bp~ 100 1000, f 18;
#X obj 394 334 / 1.05;
#X obj 486 405 *~, f 28;
#X obj 486 356 bp~ 100 1000, f 18;
#X obj 618 332 / 1.05;
#X obj 363 139 mtof;
#X obj 363 205 line;
#X floatatom 390 238 5 0 0 0 - - -, f 5;
#X obj 512 140 mtof;
#X obj 512 206 line;
#X floatatom 539 239 5 0 0 0 - - -, f 5;
#X obj 486 379 *~ 0.8;
#X obj 262 381 *~ 5;
#X obj 36 383 *~ 20;
#X msg 100 117 91;
#X msg 365 108 76;
#X msg 514 109 86;
#X connect 0 0 12 0;
#X connect 1 0 7 0;
#X connect 2 0 0 1;
#X connect 2 0 15 1;
#X connect 2 0 18 1;
#X connect 3 0 2 0;
#X connect 3 0 2 1;
#X connect 4 0 13 0;
#X connect 4 1 30 0;
#X connect 4 1 31 0;
#X connect 4 1 32 0;
#X connect 5 0 6 0;
#X connect 5 0 16 0;
#X connect 5 0 19 0;
#X connect 6 0 29 0;
#X connect 7 0 6 1;
#X connect 7 0 8 0;
#X connect 7 0 9 0;
#X connect 9 0 6 2;
#X connect 10 0 4 0;
#X connect 10 1 14 0;
#X connect 11 0 10 0;
#X connect 13 0 3 0;
#X connect 14 0 3 0;
#X connect 15 0 12 0;
#X connect 16 0 28 0;
#X connect 17 0 16 2;
#X connect 18 0 12 0;
#X connect 19 0 27 0;
#X connect 20 0 19 2;
#X connect 21 0 22 0;
#X connect 22 0 23 0;
#X connect 22 0 16 1;
#X connect 22 0 17 0;
#X connect 24 0 25 0;
#X connect 25 0 26 0;
#X connect 25 0 19 1;
#X connect 25 0 20 0;
#X connect 27 0 18 0;
#X connect 28 0 15 0;
#X connect 29 0 0 0;
#X connect 30 0 1 0;
#X connect 31 0 21 0;
#X connect 32 0 24 0;
#X restore 176 517 pd sol;
#N canvas 299 99 691 533 la 0;
#X obj 36 409 *~, f 28;
#X obj 98 148 mtof;
#X obj 229 220 *~;
#X obj 229 192 line~;
#X obj 146 94 t b b;
#X obj 36 329 noise~;
#X obj 36 360 bp~ 100 1000, f 18;
#X obj 98 214 line;
#X floatatom 125 247 5 0 0 0 - - -, f 5;
#X obj 168 336 / 1.05;
#X obj 146 63 sel 1 0;
#X obj 146 36 inlet;
#X obj 36 491 outlet~;
#X obj 146 147 pack 0.7 150;
#X msg 100 117 81;
#X obj 246 147 pack 0 550;
#X obj 262 407 *~, f 28;
#X obj 262 358 bp~ 100 1000, f 18;
#X obj 394 334 / 1.05;
#X obj 486 405 *~, f 28;
#X obj 486 356 bp~ 100 1000, f 18;
#X obj 618 332 / 1.05;
#X obj 363 139 mtof;
#X obj 363 205 line;
#X floatatom 390 238 5 0 0 0 - - -, f 5;
#X obj 512 140 mtof;
#X obj 512 206 line;
#X floatatom 539 239 5 0 0 0 - - -, f 5;
#X obj 486 379 *~ 0.8;
#X msg 514 109 88;
#X msg 365 108 78;
#X obj 262 381 *~ 5;
#X obj 36 383 *~ 20;
#X connect 0 0 12 0;
#X connect 1 0 7 0;
#X connect 2 0 0 1;
#X connect 2 0 16 1;
#X connect 2 0 19 1;
#X connect 3 0 2 0;
#X connect 3 0 2 1;
#X connect 4 0 13 0;
#X connect 4 1 14 0;
#X connect 4 1 30 0;
#X connect 4 1 29 0;
#X connect 5 0 6 0;
#X connect 5 0 17 0;
#X connect 5 0 20 0;
#X connect 6 0 32 0;
#X connect 7 0 6 1;
#X connect 7 0 8 0;
#X connect 7 0 9 0;
#X connect 9 0 6 2;
#X connect 10 0 4 0;
#X connect 10 1 15 0;
#X connect 11 0 10 0;
#X connect 13 0 3 0;
#X connect 14 0 1 0;
#X connect 15 0 3 0;
#X connect 16 0 12 0;
#X connect 17 0 31 0;
#X connect 18 0 17 2;
#X connect 19 0 12 0;
#X connect 20 0 28 0;
#X connect 21 0 20 2;
#X connect 22 0 23 0;
#X connect 23 0 24 0;
#X connect 23 0 17 1;
#X connect 23 0 18 0;
#X connect 25 0 26 0;
#X connect 26 0 27 0;
#X connect 26 0 20 1;
#X connect 26 0 21 0;
#X connect 28 0 19 0;
#X connect 29 0 25 0;
#X connect 30 0 22 0;
#X connect 31 0 16 0;
#X connect 32 0 0 0;
#X restore 60 518 pd la;
#X text 271 251 sensor 5;
#X obj 477 460 clip 20 600;
#X obj 102 286 == 2;
#X obj 158 285 == 3;
#X obj 218 288 == 4;
#X obj 281 288 == 5;
#X obj 342 287 == 6;
#X obj 61 460 < 240;
#X obj 117 461 < 240;
#X obj 177 460 < 240;
#X obj 240 460 < 240;
#X obj 301 461 < 240;
#X obj 622 621 vu 15 120 empty empty -1 -8 0 10 -66577 -1 1 0;
#X obj 618 569 env~;
#X floatatom 661 591 5 0 0 0 - - -, f 5;
#X obj 618 591 - 100;
#X obj 619 405 spigot;
#X floatatom 618 483 5 0 0 0 - - -, f 5;
#X text 710 447 sensor 1;
#X obj 660 289 == 1;
#X obj 436 816 lop~ 6000;
#X obj 544 816 lop~ 6000;
#X obj 619 450 clip 20 600;
#X floatatom 619 431 5 0 0 0 - - -, f 5;
#N canvas 583 249 1097 701 MAIN_SOUND0 0;
#X floatatom 180 193 5 0 0 0 - - -, f 5;
#X text 222 318 oct;
#X obj 180 292 * -12;
#X floatatom 180 317 5 0 0 0 - - -, f 5;
#X floatatom 34 399 5 0 0 0 - - -, f 5;
#X obj 34 376 +, f 21;
#X obj 34 314 spigot;
#X obj 73 287 !=;
#X obj 34 247 t f f, f 6;
#X obj 34 137 mod 115;
#N canvas 0 50 450 300 PentaCH2 0;
#X obj 47 64 inlet;
#X obj 57 186 outlet;
#X obj 47 97 sel 0 1 2 3 4, f 44;
#X msg 47 119 7;
#X msg 108 121 9;
#X msg 168 120 11;
#X msg 230 122 2;
#X msg 291 122 4;
#X connect 0 0 2 0;
#X connect 2 0 3 0;
#X connect 2 1 4 0;
#X connect 2 2 5 0;
#X connect 2 3 6 0;
#X connect 2 4 7 0;
#X connect 3 0 1 0;
#X connect 4 0 1 0;
#X connect 5 0 1 0;
#X connect 6 0 1 0;
#X connect 7 0 1 0;
#X restore 34 340 pd PentaCH2;
#X obj 34 101 t f f f f, f 63;
#X obj 34 225 * -1;
#X msg 34 423 next \$1;
#X obj 34 194 - 4;
#X floatatom 180 255 5 0 0 0 - - -, f 5;
#X obj 246 402 noise~;
#X obj 246 433 bp~ 100 1000, f 18;
#X obj 308 287 line;
#X floatatom 335 320 5 0 0 0 - - -, f 5;
#X msg 308 250 \$1 125;
#X obj 308 221 abs;
#X obj 368 408 / 1.05;
#X obj 308 130 f;
#X obj 180 167 div 150;
#X obj 34 165 div 24;
#X msg 183 458 clear;
#X obj 180 219 - 9;
#X obj 246 491 biquad~ 1.92069 -0.925384 0.916437 -1.82841 0.916437
, f 19;
#X obj 33 42 inlet;
#X obj 309 40 inlet;
#X obj 243 666 outlet~;
#X obj 171 57 random 12;
#N canvas 0 23 508 585 smooth 0;
#X obj 53 14 inlet;
#X obj 99 119 f;
#X obj 53 79 t f f b;
#X obj 76 248 -, f 4;
#X obj 76 270 abs;
#X obj 164 175 f;
#X obj 142 251 -, f 4;
#X obj 142 273 abs;
#X obj 99 146 t f f f b, f 10;
#X obj 229 227 f;
#X obj 208 284 -, f 4;
#X obj 208 306 abs;
#X obj 164 198 t f f f b, f 10;
#X obj 140 469 +;
#X obj 74 491 +;
#X obj 74 546 outlet;
#X obj 74 524 / 50;
#X obj 295 281 f;
#X obj 274 353 -, f 4;
#X obj 274 375 abs;
#X obj 230 252 t f f f b, f 10;
#X obj 363 342 f;
#X obj 342 367 -, f 4;
#X obj 342 389 abs;
#X obj 298 313 t f f f b, f 10;
#X obj 274 420 +;
#X obj 208 440 +;
#X connect 0 0 2 0;
#X connect 1 0 8 0;
#X connect 2 0 1 1;
#X connect 2 1 3 0;
#X connect 2 2 1 0;
#X connect 3 0 4 0;
#X connect 4 0 14 0;
#X connect 5 0 12 0;
#X connect 6 0 7 0;
#X connect 7 0 13 0;
#X connect 8 0 3 1;
#X connect 8 1 5 1;
#X connect 8 2 6 0;
#X connect 8 3 5 0;
#X connect 9 0 20 0;
#X connect 10 0 11 0;
#X connect 11 0 26 0;
#X connect 12 0 6 1;
#X connect 12 1 9 1;
#X connect 12 2 10 0;
#X connect 12 3 9 0;
#X connect 13 0 14 1;
#X connect 14 0 16 0;
#X connect 16 0 15 0;
#X connect 17 0 24 0;
#X connect 18 0 19 0;
#X connect 19 0 25 0;
#X connect 20 0 10 1;
#X connect 20 1 17 1;
#X connect 20 2 18 0;
#X connect 20 3 17 0;
#X connect 21 0 22 1;
#X connect 22 0 23 0;
#X connect 23 0 25 1;
#X connect 24 0 18 1;
#X connect 24 1 21 1;
#X connect 24 2 22 0;
#X connect 24 3 21 0;
#X connect 25 0 26 1;
#X connect 26 0 13 1;
#X restore 455 153 pd smooth;
#X floatatom 455 175 5 0 0 0 - - -, f 5;
#X obj 454 130 f;
#X obj 455 327 pack f 100;
#X obj 455 349 line~;
#X obj 435 409 *~;
#X obj 455 227 - 0.1;
#X obj 606 428 *~;
#X obj 773 439 *~;
#X obj 948 448 *~;
#X obj 607 219 - 0.15;
#X obj 785 223 - 0.21;
#X obj 966 216 - 0.29;
#X obj 455 251 > 0;
#X obj 455 273 sel 1;
#X obj 455 295 0.6;
#X obj 490 299 pack f 300;
#X obj 610 325 pack f 100;
#X obj 610 347 line~;
#X obj 610 249 > 0;
#X obj 610 271 sel 1;
#X obj 645 297 pack f 300;
#X obj 784 328 pack f 100;
#X obj 784 350 line~;
#X obj 784 252 > 0;
#X obj 784 274 sel 1;
#X obj 819 300 pack f 300;
#X obj 966 322 pack f 100;
#X obj 966 344 line~;
#X obj 966 246 > 0;
#X obj 966 268 sel 1;
#X obj 1001 294 pack f 300;
#X obj 610 293 0.63;
#X obj 784 296 0.68;
#X obj 966 290 0.72;
#X obj 274 550 delwrite~ vardelay0 2000;
#X obj 435 379 delread~ vardelay0 200;
#X obj 606 398 delread~ vardelay0 400;
#X obj 773 409 delread~ vardelay0 650;
#X obj 948 417 delread~ vardelay0 1200;
#X obj 246 457 *~ 18;
#X obj 33 445 clone melody 40;
#X obj 308 154 - 650;
#X obj 308 188 * -2.2;
#X connect 0 0 27 0;
#X connect 2 0 3 0;
#X connect 3 0 5 1;
#X connect 4 0 13 0;
#X connect 5 0 4 0;
#X connect 6 0 10 0;
#X connect 7 0 6 1;
#X connect 8 0 6 0;
#X connect 8 0 7 1;
#X connect 8 1 7 0;
#X connect 9 0 25 0;
#X connect 10 0 5 0;
#X connect 11 0 9 0;
#X connect 11 1 24 0;
#X connect 11 2 23 1;
#X connect 11 3 35 1;
#X connect 12 0 8 0;
#X connect 13 0 74 0;
#X connect 14 0 12 0;
#X connect 15 0 2 0;
#X connect 16 0 17 0;
#X connect 17 0 73 0;
#X connect 18 0 17 1;
#X connect 18 0 19 0;
#X connect 18 0 22 0;
#X connect 20 0 18 0;
#X connect 21 0 20 0;
#X connect 22 0 17 2;
#X connect 23 0 75 0;
#X connect 24 0 0 0;
#X connect 25 0 14 0;
#X connect 26 0 28 0;
#X connect 27 0 15 0;
#X connect 28 0 31 0;
#X connect 28 0 68 0;
#X connect 29 0 11 0;
#X connect 30 0 23 0;
#X connect 30 0 32 0;
#X connect 30 0 35 0;
#X connect 32 0 14 1;
#X connect 33 0 34 0;
#X connect 34 0 39 0;
#X connect 34 0 43 0;
#X connect 34 0 44 0;
#X connect 34 0 45 0;
#X connect 35 0 33 0;
#X connect 36 0 37 0;
#X connect 37 0 38 1;
#X connect 38 0 31 0;
#X connect 39 0 46 0;
#X connect 40 0 31 0;
#X connect 41 0 31 0;
#X connect 42 0 31 0;
#X connect 43 0 52 0;
#X connect 44 0 57 0;
#X connect 45 0 62 0;
#X connect 46 0 47 0;
#X connect 47 0 48 0;
#X connect 47 1 49 0;
#X connect 48 0 36 0;
#X connect 49 0 37 0;
#X connect 50 0 51 0;
#X connect 51 0 40 1;
#X connect 52 0 53 0;
#X connect 53 0 65 0;
#X connect 53 1 54 0;
#X connect 54 0 51 0;
#X connect 55 0 56 0;
#X connect 56 0 41 1;
#X connect 57 0 58 0;
#X connect 58 0 66 0;
#X connect 58 1 59 0;
#X connect 59 0 56 0;
#X connect 60 0 61 0;
#X connect 61 0 42 1;
#X connect 62 0 63 0;
#X connect 63 0 67 0;
#X connect 63 1 64 0;
#X connect 64 0 61 0;
#X connect 65 0 50 0;
#X connect 66 0 55 0;
#X connect 67 0 60 0;
#X connect 69 0 38 0;
#X connect 70 0 40 0;
#X connect 71 0 41 0;
#X connect 72 0 42 0;
#X connect 73 0 28 0;
#X connect 74 0 31 0;
#X connect 75 0 76 0;
#X connect 76 0 21 0;
#X restore 475 521 pd MAIN_SOUND0;
#N canvas 436 227 1097 701 MAIN_SOUND1 0;
#X floatatom 180 193 5 0 0 0 - - -, f 5;
#X text 222 318 oct;
#X obj 180 292 * -12;
#X floatatom 180 317 5 0 0 0 - - -, f 5;
#X floatatom 34 399 5 0 0 0 - - -, f 5;
#X obj 34 376 +, f 21;
#X obj 34 314 spigot;
#X obj 73 287 !=;
#X obj 34 247 t f f, f 6;
#X obj 34 137 mod 115;
#N canvas 0 50 450 300 PentaCH2 0;
#X obj 47 64 inlet;
#X obj 57 186 outlet;
#X obj 47 97 sel 0 1 2 3 4, f 44;
#X msg 47 119 7;
#X msg 108 121 9;
#X msg 168 120 11;
#X msg 230 122 2;
#X msg 291 122 4;
#X connect 0 0 2 0;
#X connect 2 0 3 0;
#X connect 2 1 4 0;
#X connect 2 2 5 0;
#X connect 2 3 6 0;
#X connect 2 4 7 0;
#X connect 3 0 1 0;
#X connect 4 0 1 0;
#X connect 5 0 1 0;
#X connect 6 0 1 0;
#X connect 7 0 1 0;
#X restore 34 340 pd PentaCH2;
#X obj 34 101 t f f f f, f 63;
#X obj 34 225 * -1;
#X msg 34 423 next \$1;
#X obj 34 194 - 4;
#X floatatom 180 255 5 0 0 0 - - -, f 5;
#X obj 246 402 noise~;
#X obj 246 433 bp~ 100 1000, f 18;
#X obj 308 287 line;
#X floatatom 335 320 5 0 0 0 - - -, f 5;
#X msg 308 250 \$1 125;
#X obj 308 221 abs;
#X obj 378 409 / 1.05;
#X obj 308 130 f;
#X obj 180 167 div 150;
#X obj 34 165 div 24;
#X msg 183 458 clear;
#X obj 180 219 - 9;
#X obj 246 491 biquad~ 1.92069 -0.925384 0.916437 -1.82841 0.916437
, f 19;
#X obj 33 42 inlet;
#X obj 309 40 inlet;
#X obj 243 666 outlet~;
#X obj 171 57 random 12;
#N canvas 0 23 508 585 smooth 0;
#X obj 53 14 inlet;
#X obj 99 119 f;
#X obj 53 79 t f f b;
#X obj 76 248 -, f 4;
#X obj 76 270 abs;
#X obj 164 175 f;
#X obj 142 251 -, f 4;
#X obj 142 273 abs;
#X obj 99 146 t f f f b, f 10;
#X obj 229 227 f;
#X obj 208 284 -, f 4;
#X obj 208 306 abs;
#X obj 164 198 t f f f b, f 10;
#X obj 140 469 +;
#X obj 74 491 +;
#X obj 74 546 outlet;
#X obj 74 524 / 50;
#X obj 295 281 f;
#X obj 274 353 -, f 4;
#X obj 274 375 abs;
#X obj 230 252 t f f f b, f 10;
#X obj 363 342 f;
#X obj 342 367 -, f 4;
#X obj 342 389 abs;
#X obj 298 313 t f f f b, f 10;
#X obj 274 420 +;
#X obj 208 440 +;
#X connect 0 0 2 0;
#X connect 1 0 8 0;
#X connect 2 0 1 1;
#X connect 2 1 3 0;
#X connect 2 2 1 0;
#X connect 3 0 4 0;
#X connect 4 0 14 0;
#X connect 5 0 12 0;
#X connect 6 0 7 0;
#X connect 7 0 13 0;
#X connect 8 0 3 1;
#X connect 8 1 5 1;
#X connect 8 2 6 0;
#X connect 8 3 5 0;
#X connect 9 0 20 0;
#X connect 10 0 11 0;
#X connect 11 0 26 0;
#X connect 12 0 6 1;
#X connect 12 1 9 1;
#X connect 12 2 10 0;
#X connect 12 3 9 0;
#X connect 13 0 14 1;
#X connect 14 0 16 0;
#X connect 16 0 15 0;
#X connect 17 0 24 0;
#X connect 18 0 19 0;
#X connect 19 0 25 0;
#X connect 20 0 10 1;
#X connect 20 1 17 1;
#X connect 20 2 18 0;
#X connect 20 3 17 0;
#X connect 21 0 22 1;
#X connect 22 0 23 0;
#X connect 23 0 25 1;
#X connect 24 0 18 1;
#X connect 24 1 21 1;
#X connect 24 2 22 0;
#X connect 24 3 21 0;
#X connect 25 0 26 1;
#X connect 26 0 13 1;
#X restore 560 148 pd smooth;
#X floatatom 560 170 5 0 0 0 - - -, f 5;
#X obj 559 125 f;
#X obj 476 328 pack f 100;
#X obj 476 350 line~;
#X obj 456 410 *~;
#X obj 274 550 delwrite~ vardelay1 2000;
#X obj 476 228 - 0.1;
#X obj 456 380 delread~ vardelay1 200;
#X obj 627 429 *~;
#X obj 794 440 *~;
#X obj 969 449 *~;
#X obj 627 399 delread~ vardelay1 400;
#X obj 794 410 delread~ vardelay1 650;
#X obj 969 418 delread~ vardelay1 1200;
#X obj 628 220 - 0.15;
#X obj 806 224 - 0.21;
#X obj 987 217 - 0.29;
#X obj 476 252 > 0;
#X obj 476 274 sel 1;
#X obj 476 296 0.6;
#X obj 511 300 pack f 300;
#X obj 631 326 pack f 100;
#X obj 631 348 line~;
#X obj 631 250 > 0;
#X obj 631 272 sel 1;
#X obj 666 298 pack f 300;
#X obj 805 329 pack f 100;
#X obj 805 351 line~;
#X obj 805 253 > 0;
#X obj 805 275 sel 1;
#X obj 840 301 pack f 300;
#X obj 987 323 pack f 100;
#X obj 987 345 line~;
#X obj 987 247 > 0;
#X obj 987 269 sel 1;
#X obj 1022 295 pack f 300;
#X obj 631 294 0.63;
#X obj 805 297 0.68;
#X obj 987 291 0.72;
#X obj 246 457 *~ 18;
#X obj 33 445 clone melody 40;
#X obj 308 154 - 650;
#X text 356 155 Parametro per accordare;
#X obj 308 188 * -2.2;
#X connect 0 0 27 0;
#X connect 2 0 3 0;
#X connect 3 0 5 1;
#X connect 4 0 13 0;
#X connect 5 0 4 0;
#X connect 6 0 10 0;
#X connect 7 0 6 1;
#X connect 8 0 6 0;
#X connect 8 0 7 1;
#X connect 8 1 7 0;
#X connect 9 0 25 0;
#X connect 10 0 5 0;
#X connect 11 0 9 0;
#X connect 11 1 24 0;
#X connect 11 2 23 1;
#X connect 11 3 35 1;
#X connect 12 0 8 0;
#X connect 13 0 74 0;
#X connect 14 0 12 0;
#X connect 15 0 2 0;
#X connect 16 0 17 0;
#X connect 17 0 73 0;
#X connect 18 0 17 1;
#X connect 18 0 19 0;
#X connect 18 0 22 0;
#X connect 20 0 18 0;
#X connect 21 0 20 0;
#X connect 22 0 17 2;
#X connect 23 0 75 0;
#X connect 24 0 0 0;
#X connect 25 0 14 0;
#X connect 26 0 28 0;
#X connect 27 0 15 0;
#X connect 28 0 31 0;
#X connect 28 0 39 0;
#X connect 29 0 11 0;
#X connect 30 0 23 0;
#X connect 30 0 32 0;
#X connect 30 0 35 0;
#X connect 32 0 14 1;
#X connect 33 0 34 0;
#X connect 34 0 40 0;
#X connect 34 0 48 0;
#X connect 34 0 49 0;
#X connect 34 0 50 0;
#X connect 35 0 33 0;
#X connect 36 0 37 0;
#X connect 37 0 38 1;
#X connect 38 0 31 0;
#X connect 40 0 51 0;
#X connect 41 0 38 0;
#X connect 42 0 31 0;
#X connect 43 0 31 0;
#X connect 44 0 31 0;
#X connect 45 0 42 0;
#X connect 46 0 43 0;
#X connect 47 0 44 0;
#X connect 48 0 57 0;
#X connect 49 0 62 0;
#X connect 50 0 67 0;
#X connect 51 0 52 0;
#X connect 52 0 53 0;
#X connect 52 1 54 0;
#X connect 53 0 36 0;
#X connect 54 0 37 0;
#X connect 55 0 56 0;
#X connect 56 0 42 1;
#X connect 57 0 58 0;
#X connect 58 0 70 0;
#X connect 58 1 59 0;
#X connect 59 0 56 0;
#X connect 60 0 61 0;
#X connect 61 0 43 1;
#X connect 62 0 63 0;
#X connect 63 0 71 0;
#X connect 63 1 64 0;
#X connect 64 0 61 0;
#X connect 65 0 66 0;
#X connect 66 0 44 1;
#X connect 67 0 68 0;
#X connect 68 0 72 0;
#X connect 68 1 69 0;
#X connect 69 0 66 0;
#X connect 70 0 55 0;
#X connect 71 0 60 0;
#X connect 72 0 65 0;
#X connect 73 0 28 0;
#X connect 74 0 31 0;
#X connect 75 0 77 0;
#X connect 77 0 21 0;
#X restore 618 541 pd MAIN_SOUND1;
#X obj 444 842 *~ 0.125;
#X obj 551 841 *~ 0.125;
#X obj 436 778 hip~ 320;
#X obj 544 778 hip~ 320;
#X msg 403 541 0.9;
#X text 379 173 serial receive \, byte and sensor number detection
, f 15;
#X floatatom 477 482 5 0 0 0 - - -, f 5;
#X text 58 255 sensor 2;
#X text 135 253 sensor 3;
#X text 204 251 sensor 4;
#X text 339 249 sensor 6;
#X connect 0 0 16 0;
#X connect 1 0 16 0;
#X connect 2 0 3 0;
#X connect 2 0 15 0;
#X connect 7 0 6 0;
#X connect 7 0 61 1;
#X connect 7 0 62 1;
#X connect 8 0 28 0;
#X connect 9 0 11 0;
#X connect 10 0 9 1;
#X connect 11 0 31 0;
#X connect 12 0 13 0;
#X connect 13 0 58 0;
#X connect 14 0 103 0;
#X connect 15 0 34 0;
#X connect 16 0 35 0;
#X connect 17 0 8 1;
#X connect 17 0 57 0;
#X connect 18 0 27 0;
#X connect 18 1 19 0;
#X connect 19 0 20 0;
#X connect 20 0 30 0;
#X connect 21 0 22 0;
#X connect 21 1 20 1;
#X connect 22 0 25 0;
#X connect 22 1 32 1;
#X connect 24 0 23 0;
#X connect 25 0 24 0;
#X connect 25 1 26 0;
#X connect 26 0 23 0;
#X connect 27 0 32 0;
#X connect 28 0 70 0;
#X connect 28 1 55 0;
#X connect 29 0 18 0;
#X connect 30 0 21 0;
#X connect 31 0 37 0;
#X connect 31 0 38 0;
#X connect 31 0 42 0;
#X connect 31 0 45 0;
#X connect 31 0 47 0;
#X connect 31 0 49 0;
#X connect 31 0 89 0;
#X connect 33 0 11 1;
#X connect 34 0 98 1;
#X connect 34 0 97 1;
#X connect 35 0 9 0;
#X connect 35 1 8 0;
#X connect 35 2 17 0;
#X connect 36 0 29 0;
#X connect 37 0 39 0;
#X connect 38 0 40 0;
#X connect 39 0 80 0;
#X connect 40 0 74 0;
#X connect 41 0 38 1;
#X connect 42 0 43 0;
#X connect 43 0 81 0;
#X connect 44 0 61 0;
#X connect 44 0 62 0;
#X connect 45 0 46 0;
#X connect 46 0 82 0;
#X connect 47 0 48 0;
#X connect 48 0 83 0;
#X connect 49 0 50 0;
#X connect 50 0 84 0;
#X connect 52 0 53 0;
#X connect 52 0 54 0;
#X connect 54 0 51 0;
#X connect 55 0 56 0;
#X connect 56 0 41 0;
#X connect 56 0 75 0;
#X connect 56 0 76 0;
#X connect 56 0 77 0;
#X connect 56 0 78 0;
#X connect 56 0 79 0;
#X connect 56 0 92 0;
#X connect 57 0 10 0;
#X connect 58 0 2 0;
#X connect 58 0 63 0;
#X connect 59 0 61 0;
#X connect 59 0 62 0;
#X connect 60 0 61 0;
#X connect 60 0 62 0;
#X connect 61 0 101 0;
#X connect 62 0 102 0;
#X connect 63 0 16 0;
#X connect 64 0 59 0;
#X connect 65 0 44 0;
#X connect 66 0 71 0;
#X connect 67 0 60 0;
#X connect 68 0 72 0;
#X connect 70 0 33 0;
#X connect 71 0 61 0;
#X connect 71 0 62 0;
#X connect 72 0 61 0;
#X connect 72 0 62 0;
#X connect 74 0 105 0;
#X connect 75 0 37 1;
#X connect 76 0 42 1;
#X connect 77 0 45 1;
#X connect 78 0 47 1;
#X connect 79 0 49 1;
#X connect 86 0 87 0;
#X connect 86 0 88 0;
#X connect 88 0 85 0;
#X connect 89 0 96 0;
#X connect 90 0 98 0;
#X connect 92 0 89 1;
#X connect 93 0 5 0;
#X connect 93 0 99 0;
#X connect 94 0 5 1;
#X connect 94 0 100 0;
#X connect 95 0 90 0;
#X connect 96 0 95 0;
#X connect 97 0 52 0;
#X connect 97 0 101 0;
#X connect 98 0 86 0;
#X connect 98 0 102 0;
#X connect 99 0 5 1;
#X connect 100 0 5 0;
#X connect 101 0 93 0;
#X connect 102 0 94 0;
#X connect 103 0 7 0;
#X connect 105 0 97 0;
#X coords 0 0 1 1 85 60 0;
