#N canvas 0 93 656 323 10;
#X msg 402 26 devices;
#X msg 540 26 close;
#X obj 687 29 tgl 15 0 empty empty empty 17 7 0 10 -262144 -1 -1 1
1;
#X msg 687 63 \; pd dsp \$1;
#X obj 692 904 env~;
#X floatatom 735 926 5 0 0 0 - - -, f 5;
#X obj 692 926 - 100;
#X obj 695 968 vu 15 120 empty empty -1 -8 0 10 -66577 -1 1 0;
#X text 489 295 cm, f 3;
#X obj 433 955 dac~ 1 2, f 12;
#X obj 440 460 mod 100;
#X floatatom 732 515 5 0 0 0 - - -, f 5;
#X text 774 640 oct;
#X obj 732 614 * -12;
#X floatatom 732 639 5 0 0 0 - - -, f 5;
#X obj 440 489 div 20;
#N canvas 2 95 450 300 PentaCH 0;
#X obj 47 64 inlet;
#X obj 57 186 outlet;
#X obj 47 97 sel 0 1 2 3 4, f 44;
#X msg 47 119 2;
#X msg 108 121 4;
#X msg 168 120 7;
#X msg 230 122 9;
#X msg 291 122 11;
#X connect 0 0 2 0;
#X connect 2 0 3 0;
#X connect 2 1 4 0;
#X connect 2 2 5 0;
#X connect 2 3 6 0;
#X connect 2 4 7 0;
#X connect 3 0 1 0;
#X connect 4 0 1 0;
#X connect 5 0 1 0;
#X connect 6 0 1 0;
#X connect 7 0 1 0;
#X restore 440 661 pd PentaCH;
#X floatatom 440 721 5 0 0 0 - - -, f 5;
#X msg 440 744 next \$1;
#X floatatom 375 724 5 0 0 0 - - -, f 5;
#X obj 440 695 +, f 15;
#X obj 440 609 spigot;
#X obj 479 583 !=;
#X obj 440 540 t f f, f 6;
#X floatatom 586 721 5 0 0 0 - - -, f 5;
#X obj 586 698 +, f 21;
#X obj 586 636 spigot;
#X obj 625 609 !=;
#X obj 586 569 t f f, f 6;
#X obj 586 459 mod 115;
#N canvas 0 50 450 300 PentaCH2 0;
#X obj 47 64 inlet;
#X obj 57 186 outlet;
#X obj 47 97 sel 0 1 2 3 4, f 44;
#X msg 47 119 7;
#X msg 108 121 9;
#X msg 168 120 11;
#X msg 230 122 2;
#X msg 291 122 4;
#X connect 0 0 2 0;
#X connect 2 0 3 0;
#X connect 2 1 4 0;
#X connect 2 2 5 0;
#X connect 2 3 6 0;
#X connect 2 4 7 0;
#X connect 3 0 1 0;
#X connect 4 0 1 0;
#X connect 5 0 1 0;
#X connect 6 0 1 0;
#X connect 7 0 1 0;
#X restore 586 662 pd PentaCH2;
#X obj 440 425 t f f f f, f 63;
#X obj 586 547 * -1;
#X msg 586 745 next \$1;
#X obj 374 665 vsl 15 50 0 1 0 0 empty empty empty 0 -9 0 10 -262144
-1 -1 2940 1;
#X obj 586 516 - 4;
#X floatatom 732 577 5 0 0 0 - - -, f 5;
#X obj 497 116 spigot;
#X obj 439 219 spigot;
#X obj 600 183 * -1;
#X obj 440 253 +;
#X obj 798 724 noise~;
#X obj 798 755 bp~ 100 1000, f 18;
#X obj 860 609 line;
#X floatatom 887 642 5 0 0 0 - - -, f 5;
#X msg 860 572 \$1 125;
#X obj 687 -43 loadbang;
#X obj 687 -21 bng 15 250 50 0 empty empty empty 17 7 0 10 -262144
-1 -1;
#X obj 374 610 loadbang;
#X obj 788 903 env~;
#X floatatom 831 925 5 0 0 0 - - -, f 5;
#X obj 788 925 - 100;
#X obj 763 965 vu 15 120 empty empty -1 -8 0 10 -66577 -1 1 0;
#X obj 860 543 abs;
#X obj 930 731 / 1.05;
#X obj 859 362 tgl 15 0 empty empty empty 17 7 0 10 -262144 -1 -1 1
1;
#X obj 860 452 f;
#X obj 474 50 comport 0 9600;
#X obj 600 94 & 128;
#X obj 1151 283 t b b, f 14;
#X msg 1231 311 1;
#X obj 1231 332 + 0, f 9;
#X obj 1231 374 t f f, f 9;
#X obj 1231 395 sel 0;
#X obj 1150 521 text define sensor-read;
#X msg 1340 449 clear;
#X obj 1231 416 t b b;
#X msg 1150 486 write /home/pi/Documents/MusicHall/sensor-log.txt;
#X obj 541 253 pack f f;
#X obj 1151 417 list;
#X obj 497 138 t f f, f 7;
#X obj 1151 262 metro 100;
#X obj 1231 353 mod 51;
#X floatatom 440 287 5 0 0 0 - - -, f 5;
#X obj 1151 449 text set sensor-read, f 23;
#X obj 497 190 << 7;
#X obj 860 394 metro 100;
#X obj 474 78 t f f f;
#X obj 732 489 div 150;
#X obj 585 767 clone Core2 20;
#X obj 1148 225 tgl 15 0 empty empty empty 17 7 0 10 -262144 -1 -1
1 1;
#X obj 439 779 clone CoreSin 20;
#X obj 32 556 spigot;
#X obj 440 349 spigot;
#X floatatom 32 578 5 0 0 0 - - -, f 5;
#X floatatom 440 374 5 0 0 0 - - -, f 5;
#X obj 586 487 div 24;
#X obj 71 523 == 1;
#X obj 488 323 == 0;
#X obj 88 556 spigot;
#X floatatom 88 578 5 0 0 0 - - -, f 5;
#X obj 127 522 == 2;
#N canvas 41 95 566 356 mi 0;
#X obj 36 409 *~, f 28;
#X obj 98 148 mtof;
#X obj 229 220 *~;
#X obj 229 192 line~;
#X obj 146 94 t b b;
#X obj 36 329 noise~;
#X obj 36 360 bp~ 100 1000, f 18;
#X obj 98 214 line;
#X floatatom 125 247 5 0 0 0 - - -, f 5;
#X obj 168 336 / 1.05;
#X obj 146 63 sel 1 0;
#X obj 146 36 inlet;
#X obj 36 431 outlet~;
#X obj 229 147 pack 0 350;
#X obj 146 147 pack 0.7 250;
#X msg 100 117 76;
#X obj 36 383 *~ 7;
#X connect 0 0 12 0;
#X connect 1 0 7 0;
#X connect 2 0 0 1;
#X connect 3 0 2 0;
#X connect 3 0 2 1;
#X connect 4 0 14 0;
#X connect 4 1 15 0;
#X connect 5 0 6 0;
#X connect 6 0 16 0;
#X connect 7 0 6 1;
#X connect 7 0 8 0;
#X connect 7 0 9 0;
#X connect 9 0 6 2;
#X connect 10 0 4 0;
#X connect 10 1 13 0;
#X connect 11 0 10 0;
#X connect 13 0 3 0;
#X connect 14 0 3 0;
#X connect 15 0 1 0;
#X connect 16 0 0 0;
#X restore 211 639 pd mi;
#X obj 148 558 spigot;
#X floatatom 148 579 5 0 0 0 - - -, f 5;
#X obj 211 559 spigot;
#X floatatom 211 578 5 0 0 0 - - -, f 5;
#X obj 272 558 spigot;
#X floatatom 272 580 5 0 0 0 - - -, f 5;
#X obj 196 525 == 3;
#X obj 250 525 == 4;
#X obj 311 524 == 5;
#X obj 860 510 * -2.8;
#X obj 956 926 vu 15 120 empty empty -1 -8 0 10 -66577 -1 1 0;
#X msg 997 765 clear;
#X obj 732 541 - 9;
#X obj 870 873 env~;
#X floatatom 913 895 5 0 0 0 - - -, f 5;
#X obj 870 895 - 100;
#X obj 543 164 & 112;
#X obj 543 191 >> 4;
#X text 332 118 serial receive \, byte sort and sensor number detection
, f 15;
#X obj 600 117 - 128;
#X obj 687 -1 delay 2000;
#N canvas 49 96 566 356 si 0;
#X obj 36 409 *~, f 28;
#X obj 98 148 mtof;
#X obj 229 220 *~;
#X obj 229 192 line~;
#X obj 146 94 t b b;
#X obj 36 329 noise~;
#X obj 36 360 bp~ 100 1000, f 18;
#X obj 98 214 line;
#X floatatom 125 247 5 0 0 0 - - -, f 5;
#X obj 168 336 / 1.05;
#X obj 146 63 sel 1 0;
#X obj 146 36 inlet;
#X obj 36 431 outlet~;
#X obj 146 147 pack 1 250;
#X obj 229 147 pack 0 350;
#X msg 100 117 71;
#X obj 36 383 *~ 6;
#X connect 0 0 12 0;
#X connect 1 0 7 0;
#X connect 2 0 0 1;
#X connect 3 0 2 0;
#X connect 3 0 2 1;
#X connect 4 0 13 0;
#X connect 4 1 15 0;
#X connect 5 0 6 0;
#X connect 6 0 16 0;
#X connect 7 0 6 1;
#X connect 7 0 8 0;
#X connect 7 0 9 0;
#X connect 9 0 6 2;
#X connect 10 0 4 0;
#X connect 10 1 14 0;
#X connect 11 0 10 0;
#X connect 13 0 3 0;
#X connect 14 0 3 0;
#X connect 15 0 1 0;
#X connect 16 0 0 0;
#X restore 272 639 pd si;
#N canvas 26 107 566 356 re 0;
#X obj 36 409 *~, f 28;
#X obj 98 148 mtof;
#X obj 229 220 *~;
#X obj 229 192 line~;
#X obj 146 94 t b b;
#X obj 36 329 noise~;
#X obj 36 360 bp~ 100 1000, f 18;
#X obj 98 214 line;
#X floatatom 125 247 5 0 0 0 - - -, f 5;
#X obj 168 336 / 1.05;
#X obj 146 63 sel 1 0;
#X obj 146 36 inlet;
#X obj 36 431 outlet~;
#X obj 229 147 pack 0 250;
#X obj 146 147 pack 0.7 150;
#X msg 100 117 86;
#X obj 36 382 *~ 10;
#X connect 0 0 12 0;
#X connect 1 0 7 0;
#X connect 2 0 0 1;
#X connect 3 0 2 0;
#X connect 3 0 2 1;
#X connect 4 0 14 0;
#X connect 4 1 15 0;
#X connect 5 0 6 0;
#X connect 6 0 16 0;
#X connect 7 0 6 1;
#X connect 7 0 8 0;
#X connect 7 0 9 0;
#X connect 9 0 6 2;
#X connect 10 0 4 0;
#X connect 10 1 13 0;
#X connect 11 0 10 0;
#X connect 13 0 3 0;
#X connect 14 0 3 0;
#X connect 15 0 1 0;
#X connect 16 0 0 0;
#X restore 88 639 pd re;
#X obj 434 862 *~ 0.7, f 8;
#X obj 511 862 *~ 0.7, f 8;
#X obj 798 816 biquad~ 1.92069 -0.925384 0.916437 -1.82841 0.916437
;
#X msg 474 26 open 0;
#X obj 272 620 tgl 15 0 empty empty empty 17 7 0 10 -262144 -1 -1 0
1;
#X obj 212 620 tgl 15 0 empty empty empty 17 7 0 10 -262144 -1 -1 0
1;
#X obj 148 619 tgl 15 0 empty empty empty 17 7 0 10 -262144 -1 -1 0
1;
#X obj 88 619 tgl 15 0 empty empty empty 17 7 0 10 -262144 -1 -1 0
1;
#X obj 32 619 tgl 15 0 empty empty empty 17 7 0 10 -262144 -1 -1 0
1;
#X text 479 372 sensor 0;
#X text 173 477 sensor 1;
#X text 104 479 sensor 2;
#X text 27 481 sensor 3;
#X obj 32 597 < 180;
#X obj 148 597 < 270;
#X obj 211 597 < 150;
#X obj 497 163 & 15;
#N canvas 2 121 566 356 sol 0;
#X obj 36 409 *~, f 28;
#X obj 98 148 mtof;
#X obj 229 220 *~;
#X obj 229 192 line~;
#X obj 146 94 t b b;
#X obj 36 329 noise~;
#X obj 36 360 bp~ 100 1000, f 18;
#X obj 98 214 line;
#X floatatom 125 247 5 0 0 0 - - -, f 5;
#X obj 168 336 / 1.05;
#X obj 146 63 sel 1 0;
#X obj 146 36 inlet;
#X obj 36 431 outlet~;
#X obj 229 147 pack 0 350;
#X obj 146 147 pack 0.7 250;
#X obj 36 383 *~ 7;
#X msg 100 117 91;
#X connect 0 0 12 0;
#X connect 1 0 7 0;
#X connect 2 0 0 1;
#X connect 3 0 2 0;
#X connect 3 0 2 1;
#X connect 4 0 14 0;
#X connect 4 1 16 0;
#X connect 5 0 6 0;
#X connect 6 0 15 0;
#X connect 7 0 6 1;
#X connect 7 0 8 0;
#X connect 7 0 9 0;
#X connect 9 0 6 2;
#X connect 10 0 4 0;
#X connect 10 1 13 0;
#X connect 11 0 10 0;
#X connect 13 0 3 0;
#X connect 14 0 3 0;
#X connect 15 0 0 0;
#X connect 16 0 1 0;
#X restore 148 638 pd sol;
#N canvas 2 108 566 356 la 0;
#X obj 36 409 *~, f 28;
#X obj 98 148 mtof;
#X obj 229 220 *~;
#X obj 229 192 line~;
#X obj 146 94 t b b;
#X obj 36 329 noise~;
#X obj 36 360 bp~ 100 1000, f 18;
#X obj 98 214 line;
#X floatatom 125 247 5 0 0 0 - - -, f 5;
#X obj 168 336 / 1.05;
#X obj 146 63 sel 1 0;
#X obj 146 36 inlet;
#X obj 36 431 outlet~;
#X obj 246 147 pack 0 250;
#X obj 146 147 pack 0.7 150;
#X msg 100 117 81;
#X obj 36 383 *~ 10;
#X connect 0 0 12 0;
#X connect 1 0 7 0;
#X connect 2 0 0 1;
#X connect 3 0 2 0;
#X connect 3 0 2 1;
#X connect 4 0 14 0;
#X connect 4 1 15 0;
#X connect 5 0 6 0;
#X connect 6 0 16 0;
#X connect 7 0 6 1;
#X connect 7 0 8 0;
#X connect 7 0 9 0;
#X connect 9 0 6 2;
#X connect 10 0 4 0;
#X connect 10 1 13 0;
#X connect 11 0 10 0;
#X connect 13 0 3 0;
#X connect 14 0 3 0;
#X connect 15 0 1 0;
#X connect 16 0 0 0;
#X restore 32 639 pd la;
#X obj 440 398 clip 20 600;
#X obj 88 598 < 360;
#X obj 272 598 < 110;
#X text 308 475 sensor 4;
#X text 240 477 sensor 5;
#X obj 860 476 - 620;
#X obj 798 779 *~ 4;
#X obj 433 926 lop~ 5000;
#X obj 514 926 lop~ 5000;
#X msg 375 633 0.6;
#X obj 433 901 hip~ 550;
#X obj 514 901 hip~ 550;
#X connect 0 0 57 0;
#X connect 1 0 57 0;
#X connect 2 0 3 0;
#X connect 2 0 80 0;
#X connect 2 0 55 0;
#X connect 4 0 5 0;
#X connect 4 0 6 0;
#X connect 6 0 7 0;
#X connect 10 0 15 0;
#X connect 11 0 105 0;
#X connect 13 0 14 0;
#X connect 14 0 20 1;
#X connect 14 0 25 1;
#X connect 15 0 23 0;
#X connect 16 0 20 0;
#X connect 17 0 18 0;
#X connect 18 0 81 0;
#X connect 20 0 17 0;
#X connect 21 0 16 0;
#X connect 22 0 21 1;
#X connect 23 0 21 0;
#X connect 23 0 22 1;
#X connect 23 1 22 0;
#X connect 24 0 33 0;
#X connect 25 0 24 0;
#X connect 26 0 30 0;
#X connect 27 0 26 1;
#X connect 28 0 26 0;
#X connect 28 0 27 1;
#X connect 28 1 27 0;
#X connect 29 0 86 0;
#X connect 30 0 25 0;
#X connect 31 0 10 0;
#X connect 31 1 29 0;
#X connect 31 2 78 0;
#X connect 31 3 56 1;
#X connect 32 0 28 0;
#X connect 33 0 79 0;
#X connect 34 0 19 0;
#X connect 34 0 116 1;
#X connect 34 0 117 1;
#X connect 35 0 32 0;
#X connect 36 0 13 0;
#X connect 37 0 70 0;
#X connect 38 0 40 0;
#X connect 39 0 38 1;
#X connect 40 0 68 0;
#X connect 40 0 73 0;
#X connect 41 0 42 0;
#X connect 42 0 141 0;
#X connect 43 0 42 1;
#X connect 43 0 44 0;
#X connect 43 0 54 0;
#X connect 45 0 43 0;
#X connect 46 0 47 0;
#X connect 47 0 113 0;
#X connect 48 0 144 0;
#X connect 49 0 50 0;
#X connect 49 0 51 0;
#X connect 51 0 52 0;
#X connect 53 0 45 0;
#X connect 54 0 42 2;
#X connect 55 0 76 0;
#X connect 56 0 140 0;
#X connect 57 0 77 0;
#X connect 58 0 37 1;
#X connect 58 0 112 0;
#X connect 59 0 69 0;
#X connect 59 1 60 0;
#X connect 60 0 61 0;
#X connect 61 0 72 0;
#X connect 62 0 63 0;
#X connect 62 1 61 1;
#X connect 63 0 66 0;
#X connect 63 1 74 1;
#X connect 65 0 64 0;
#X connect 66 0 65 0;
#X connect 66 1 67 0;
#X connect 67 0 64 0;
#X connect 68 0 69 1;
#X connect 69 0 74 0;
#X connect 70 0 132 0;
#X connect 70 1 109 0;
#X connect 71 0 59 0;
#X connect 72 0 62 0;
#X connect 73 0 82 0;
#X connect 73 0 83 0;
#X connect 73 0 89 0;
#X connect 73 0 93 0;
#X connect 73 0 95 0;
#X connect 73 0 97 0;
#X connect 75 0 40 1;
#X connect 76 0 56 0;
#X connect 77 0 38 0;
#X connect 77 1 37 0;
#X connect 77 2 58 0;
#X connect 78 0 11 0;
#X connect 79 0 116 0;
#X connect 79 1 117 0;
#X connect 80 0 71 0;
#X connect 81 0 117 0;
#X connect 81 0 118 0;
#X connect 82 0 84 0;
#X connect 83 0 85 0;
#X connect 84 0 129 0;
#X connect 85 0 135 0;
#X connect 86 0 35 0;
#X connect 87 0 82 1;
#X connect 88 0 83 1;
#X connect 89 0 90 0;
#X connect 90 0 136 0;
#X connect 91 0 89 1;
#X connect 92 0 116 0;
#X connect 92 0 117 0;
#X connect 93 0 94 0;
#X connect 94 0 130 0;
#X connect 95 0 96 0;
#X connect 96 0 131 0;
#X connect 97 0 98 0;
#X connect 98 0 137 0;
#X connect 99 0 93 1;
#X connect 100 0 95 1;
#X connect 101 0 97 1;
#X connect 102 0 53 0;
#X connect 104 0 118 0;
#X connect 105 0 36 0;
#X connect 106 0 107 0;
#X connect 106 0 108 0;
#X connect 108 0 103 0;
#X connect 109 0 110 0;
#X connect 110 0 68 1;
#X connect 110 0 87 0;
#X connect 110 0 88 0;
#X connect 110 0 91 0;
#X connect 110 0 99 0;
#X connect 110 0 100 0;
#X connect 110 0 101 0;
#X connect 112 0 39 0;
#X connect 113 0 2 0;
#X connect 113 0 119 0;
#X connect 114 0 116 0;
#X connect 114 0 117 0;
#X connect 115 0 116 0;
#X connect 115 0 117 0;
#X connect 116 0 4 0;
#X connect 116 0 145 0;
#X connect 117 0 49 0;
#X connect 117 0 146 0;
#X connect 118 0 106 0;
#X connect 118 0 117 0;
#X connect 118 0 116 0;
#X connect 119 0 57 0;
#X connect 120 0 114 0;
#X connect 121 0 92 0;
#X connect 122 0 133 0;
#X connect 123 0 115 0;
#X connect 124 0 134 0;
#X connect 132 0 75 0;
#X connect 133 0 116 0;
#X connect 133 0 117 0;
#X connect 134 0 116 0;
#X connect 134 0 117 0;
#X connect 135 0 31 0;
#X connect 140 0 102 0;
#X connect 141 0 118 0;
#X connect 142 0 9 0;
#X connect 143 0 9 1;
#X connect 144 0 34 0;
#X connect 145 0 142 0;
#X connect 146 0 143 0;
#X coords 0 0 1 1 85 60 0;
