#N canvas 0 94 1493 860 10;
#X msg 439 88 devices;
#X msg 577 88 close;
#X obj 724 91 tgl 15 0 empty empty empty 17 7 0 10 -262144 -1 -1 1
1;
#X msg 724 125 \; pd dsp \$1;
#X text 446 348 cm, f 3;
#X obj 436 886 dac~ 1 2, f 16;
#X floatatom 414 630 5 0 0 0 - - -, f 5;
#X obj 403 571 vsl 15 50 0 1 0 0 empty empty empty 0 -9 0 10 -262144
-1 -1 4410 1;
#X obj 534 178 spigot;
#X obj 476 281 spigot;
#X obj 637 252 * -1;
#X obj 477 315 +;
#X obj 724 19 loadbang;
#X obj 724 41 bng 15 250 50 0 empty empty empty 17 7 0 10 -262144 -1
-1;
#X obj 403 519 loadbang;
#X obj 785 257 tgl 15 0 empty empty empty 17 7 0 10 -262144 -1 -1 1
1;
#X obj 511 112 comport 0 9600;
#X obj 637 156 & 128;
#X obj 1189 151 t b b, f 14;
#X msg 1269 179 1;
#X obj 1269 200 + 0, f 9;
#X obj 1269 242 t f f, f 9;
#X obj 1269 263 sel 0;
#X obj 1188 389 text define sensor-read;
#X msg 1378 317 clear;
#X obj 1269 284 t b b;
#X msg 1188 354 write /home/pi/Documents/MusicHall/sensor-log.txt;
#X obj 1189 285 list;
#X obj 534 200 t f f, f 7;
#X obj 1189 130 metro 100;
#X obj 1269 221 mod 51;
#X floatatom 477 349 5 0 0 0 - - -, f 5;
#X obj 1189 317 text set sensor-read, f 23;
#X obj 534 252 << 7;
#X obj 511 140 t f f f;
#X obj 1186 93 tgl 15 0 empty empty empty 17 7 0 10 -262144 -1 -1 0
1;
#X obj 61 383 spigot;
#X obj 477 411 spigot;
#X floatatom 61 423 5 0 0 0 - - -, f 5;
#X floatatom 477 438 5 0 0 0 - - -, f 5;
#X obj 516 380 == 0;
#X obj 117 383 spigot;
#X floatatom 117 423 5 0 0 0 - - -, f 5;
#N canvas 41 95 649 471 mi 0;
#X obj 36 409 *~, f 28;
#X obj 98 148 mtof;
#X obj 229 220 *~;
#X obj 229 192 line~;
#X obj 146 94 t b b;
#X obj 36 329 noise~;
#X obj 36 360 bp~ 100 1000, f 18;
#X obj 98 214 line;
#X floatatom 125 247 5 0 0 0 - - -, f 5;
#X obj 168 336 / 1.05;
#X obj 146 63 sel 1 0;
#X obj 146 36 inlet;
#X obj 36 491 outlet~;
#X obj 146 147 pack 0.7 150;
#X obj 246 147 pack 0 550;
#X obj 262 407 *~, f 28;
#X obj 262 358 bp~ 100 1000, f 18;
#X obj 394 334 / 1.05;
#X obj 486 405 *~, f 28;
#X obj 486 356 bp~ 100 1000, f 18;
#X obj 618 332 / 1.05;
#X obj 363 139 mtof;
#X obj 363 205 line;
#X floatatom 390 238 5 0 0 0 - - -, f 5;
#X obj 512 140 mtof;
#X obj 512 206 line;
#X floatatom 539 239 5 0 0 0 - - -, f 5;
#X obj 486 379 *~ 0.8;
#X obj 262 381 *~ 5;
#X obj 36 383 *~ 20;
#X msg 100 117 88;
#X msg 365 108 85;
#X msg 514 109 95;
#X connect 0 0 12 0;
#X connect 1 0 7 0;
#X connect 2 0 0 1;
#X connect 2 0 15 1;
#X connect 2 0 18 1;
#X connect 3 0 2 0;
#X connect 3 0 2 1;
#X connect 4 0 13 0;
#X connect 4 1 30 0;
#X connect 4 1 31 0;
#X connect 4 1 32 0;
#X connect 5 0 6 0;
#X connect 5 0 16 0;
#X connect 5 0 19 0;
#X connect 6 0 29 0;
#X connect 7 0 6 1;
#X connect 7 0 8 0;
#X connect 7 0 9 0;
#X connect 9 0 6 2;
#X connect 10 0 4 0;
#X connect 10 1 14 0;
#X connect 11 0 10 0;
#X connect 13 0 3 0;
#X connect 14 0 3 0;
#X connect 15 0 12 0;
#X connect 16 0 28 0;
#X connect 17 0 16 2;
#X connect 18 0 12 0;
#X connect 19 0 27 0;
#X connect 20 0 19 2;
#X connect 21 0 22 0;
#X connect 22 0 23 0;
#X connect 22 0 16 1;
#X connect 22 0 17 0;
#X connect 24 0 25 0;
#X connect 25 0 26 0;
#X connect 25 0 19 1;
#X connect 25 0 20 0;
#X connect 27 0 18 0;
#X connect 28 0 15 0;
#X connect 29 0 0 0;
#X connect 30 0 1 0;
#X connect 31 0 21 0;
#X connect 32 0 24 0;
#X restore 239 518 pd mi;
#X obj 177 385 spigot;
#X floatatom 177 424 5 0 0 0 - - -, f 5;
#X obj 240 386 spigot;
#X floatatom 240 423 5 0 0 0 - - -, f 5;
#X obj 301 385 spigot;
#X floatatom 301 425 5 0 0 0 - - -, f 5;
#X obj 343 904 vu 15 120 empty empty -1 -8 0 10 -66577 -1 1 0;
#X obj 339 852 env~;
#X floatatom 382 874 5 0 0 0 - - -, f 5;
#X obj 339 874 - 100;
#X obj 580 226 & 112;
#X obj 580 253 >> 4;
#X obj 637 197 - 128;
#X obj 724 61 delay 2000;
#N canvas 49 96 566 356 si 0;
#X obj 36 409 *~, f 28;
#X obj 98 148 mtof;
#X obj 229 220 *~;
#X obj 229 192 line~;
#X obj 146 94 t b b;
#X obj 36 329 noise~;
#X obj 36 360 bp~ 100 1000, f 18;
#X obj 98 214 line;
#X floatatom 125 247 5 0 0 0 - - -, f 5;
#X obj 168 336 / 1.05;
#X obj 146 63 sel 1 0;
#X obj 146 36 inlet;
#X obj 36 491 outlet~;
#X obj 146 147 pack 0.7 150;
#X obj 246 147 pack 0 550;
#X obj 262 407 *~, f 28;
#X obj 262 358 bp~ 100 1000, f 18;
#X obj 394 334 / 1.05;
#X obj 486 405 *~, f 28;
#X obj 486 356 bp~ 100 1000, f 18;
#X obj 618 332 / 1.05;
#X obj 363 139 mtof;
#X obj 363 205 line;
#X floatatom 390 238 5 0 0 0 - - -, f 5;
#X obj 512 140 mtof;
#X obj 512 206 line;
#X floatatom 539 239 5 0 0 0 - - -, f 5;
#X obj 486 379 *~ 0.8;
#X obj 262 381 *~ 5;
#X obj 36 383 *~ 20;
#X msg 100 116 83;
#X msg 365 108 81;
#X msg 514 109 91;
#X connect 0 0 12 0;
#X connect 1 0 7 0;
#X connect 2 0 0 1;
#X connect 2 0 15 1;
#X connect 2 0 18 1;
#X connect 3 0 2 0;
#X connect 3 0 2 1;
#X connect 4 0 13 0;
#X connect 4 1 30 0;
#X connect 4 1 31 0;
#X connect 4 1 32 0;
#X connect 5 0 6 0;
#X connect 5 0 16 0;
#X connect 5 0 19 0;
#X connect 6 0 29 0;
#X connect 7 0 6 1;
#X connect 7 0 8 0;
#X connect 7 0 9 0;
#X connect 9 0 6 2;
#X connect 10 0 4 0;
#X connect 10 1 14 0;
#X connect 11 0 10 0;
#X connect 13 0 3 0;
#X connect 14 0 3 0;
#X connect 15 0 12 0;
#X connect 16 0 28 0;
#X connect 17 0 16 2;
#X connect 18 0 12 0;
#X connect 19 0 27 0;
#X connect 20 0 19 2;
#X connect 21 0 22 0;
#X connect 22 0 23 0;
#X connect 22 0 16 1;
#X connect 22 0 17 0;
#X connect 24 0 25 0;
#X connect 25 0 26 0;
#X connect 25 0 19 1;
#X connect 25 0 20 0;
#X connect 27 0 18 0;
#X connect 28 0 15 0;
#X connect 29 0 0 0;
#X connect 30 0 1 0;
#X connect 31 0 21 0;
#X connect 32 0 24 0;
#X restore 300 518 pd si;
#N canvas 26 107 750 546 re 0;
#X obj 36 409 *~, f 28;
#X obj 98 148 mtof;
#X obj 229 220 *~;
#X obj 229 192 line~;
#X obj 146 94 t b b;
#X obj 36 329 noise~;
#X obj 36 360 bp~ 100 1000, f 18;
#X obj 98 214 line;
#X floatatom 125 247 5 0 0 0 - - -, f 5;
#X obj 168 336 / 1.05;
#X obj 146 63 sel 1 0;
#X obj 146 36 inlet;
#X obj 36 491 outlet~;
#X obj 146 147 pack 0.7 150;
#X obj 246 147 pack 0 550;
#X obj 262 407 *~, f 28;
#X obj 262 358 bp~ 100 1000, f 18;
#X obj 394 334 / 1.05;
#X obj 486 405 *~, f 28;
#X obj 486 356 bp~ 100 1000, f 18;
#X obj 618 332 / 1.05;
#X obj 363 139 mtof;
#X obj 363 205 line;
#X floatatom 390 238 5 0 0 0 - - -, f 5;
#X obj 512 140 mtof;
#X obj 512 206 line;
#X floatatom 539 239 5 0 0 0 - - -, f 5;
#X obj 486 379 *~ 0.8;
#X obj 262 381 *~ 5;
#X obj 36 383 *~ 20;
#X msg 100 117 86;
#X msg 514 109 84;
#X msg 365 108 79;
#X connect 0 0 12 0;
#X connect 1 0 7 0;
#X connect 2 0 0 1;
#X connect 2 0 15 1;
#X connect 2 0 18 1;
#X connect 3 0 2 0;
#X connect 3 0 2 1;
#X connect 4 0 13 0;
#X connect 4 1 30 0;
#X connect 4 1 32 0;
#X connect 4 1 31 0;
#X connect 5 0 6 0;
#X connect 5 0 16 0;
#X connect 5 0 19 0;
#X connect 6 0 29 0;
#X connect 7 0 6 1;
#X connect 7 0 8 0;
#X connect 7 0 9 0;
#X connect 9 0 6 2;
#X connect 10 0 4 0;
#X connect 10 1 14 0;
#X connect 11 0 10 0;
#X connect 13 0 3 0;
#X connect 14 0 3 0;
#X connect 15 0 12 0;
#X connect 16 0 28 0;
#X connect 17 0 16 2;
#X connect 18 0 12 0;
#X connect 19 0 27 0;
#X connect 20 0 19 2;
#X connect 21 0 22 0;
#X connect 22 0 23 0;
#X connect 22 0 16 1;
#X connect 22 0 17 0;
#X connect 24 0 25 0;
#X connect 25 0 26 0;
#X connect 25 0 19 1;
#X connect 25 0 20 0;
#X connect 27 0 18 0;
#X connect 28 0 15 0;
#X connect 29 0 0 0;
#X connect 30 0 1 0;
#X connect 31 0 24 0;
#X connect 32 0 21 0;
#X restore 116 518 pd re;
#X obj 62 684 *~ 0.7, f 8;
#X obj 301 686 *~ 0.7, f 8;
#X msg 511 88 open 0;
#X obj 300 491 tgl 15 0 empty empty empty 17 7 0 10 -262144 -1 -1 0
1;
#X obj 240 491 tgl 15 0 empty empty empty 17 7 0 10 -262144 -1 -1 0
1;
#X obj 176 490 tgl 15 0 empty empty empty 17 7 0 10 -262144 -1 -1 0
1;
#X obj 116 490 tgl 15 0 empty empty empty 17 7 0 10 -262144 -1 -1 0
1;
#X obj 60 490 tgl 15 0 empty empty empty 17 7 0 10 -262144 -1 -1 0
1;
#X text 556 378 sensor 0;
#X obj 534 225 & 15;
#N canvas 2 121 740 531 sol 0;
#X obj 36 409 *~, f 28;
#X obj 98 148 mtof;
#X obj 229 220 *~;
#X obj 229 192 line~;
#X obj 146 94 t b b;
#X obj 36 329 noise~;
#X obj 36 360 bp~ 100 1000, f 18;
#X obj 98 214 line;
#X floatatom 125 247 5 0 0 0 - - -, f 5;
#X obj 168 336 / 1.05;
#X obj 146 63 sel 1 0;
#X obj 146 36 inlet;
#X obj 36 491 outlet~;
#X obj 146 147 pack 0.7 150;
#X obj 246 147 pack 0 550;
#X obj 262 407 *~, f 28;
#X obj 262 358 bp~ 100 1000, f 18;
#X obj 394 334 / 1.05;
#X obj 486 405 *~, f 28;
#X obj 486 356 bp~ 100 1000, f 18;
#X obj 618 332 / 1.05;
#X obj 363 139 mtof;
#X obj 363 205 line;
#X floatatom 390 238 5 0 0 0 - - -, f 5;
#X obj 512 140 mtof;
#X obj 512 206 line;
#X floatatom 539 239 5 0 0 0 - - -, f 5;
#X obj 486 379 *~ 0.8;
#X obj 262 381 *~ 5;
#X obj 36 383 *~ 20;
#X msg 100 117 91;
#X msg 365 108 76;
#X msg 514 109 86;
#X connect 0 0 12 0;
#X connect 1 0 7 0;
#X connect 2 0 0 1;
#X connect 2 0 15 1;
#X connect 2 0 18 1;
#X connect 3 0 2 0;
#X connect 3 0 2 1;
#X connect 4 0 13 0;
#X connect 4 1 30 0;
#X connect 4 1 31 0;
#X connect 4 1 32 0;
#X connect 5 0 6 0;
#X connect 5 0 16 0;
#X connect 5 0 19 0;
#X connect 6 0 29 0;
#X connect 7 0 6 1;
#X connect 7 0 8 0;
#X connect 7 0 9 0;
#X connect 9 0 6 2;
#X connect 10 0 4 0;
#X connect 10 1 14 0;
#X connect 11 0 10 0;
#X connect 13 0 3 0;
#X connect 14 0 3 0;
#X connect 15 0 12 0;
#X connect 16 0 28 0;
#X connect 17 0 16 2;
#X connect 18 0 12 0;
#X connect 19 0 27 0;
#X connect 20 0 19 2;
#X connect 21 0 22 0;
#X connect 22 0 23 0;
#X connect 22 0 16 1;
#X connect 22 0 17 0;
#X connect 24 0 25 0;
#X connect 25 0 26 0;
#X connect 25 0 19 1;
#X connect 25 0 20 0;
#X connect 27 0 18 0;
#X connect 28 0 15 0;
#X connect 29 0 0 0;
#X connect 30 0 1 0;
#X connect 31 0 21 0;
#X connect 32 0 24 0;
#X restore 176 517 pd sol;
#N canvas 299 99 691 533 la 0;
#X obj 36 409 *~, f 28;
#X obj 98 148 mtof;
#X obj 229 220 *~;
#X obj 229 192 line~;
#X obj 146 94 t b b;
#X obj 36 329 noise~;
#X obj 36 360 bp~ 100 1000, f 18;
#X obj 98 214 line;
#X floatatom 125 247 5 0 0 0 - - -, f 5;
#X obj 168 336 / 1.05;
#X obj 146 63 sel 1 0;
#X obj 146 36 inlet;
#X obj 36 491 outlet~;
#X obj 146 147 pack 0.7 150;
#X msg 100 117 81;
#X obj 246 147 pack 0 550;
#X obj 262 407 *~, f 28;
#X obj 262 358 bp~ 100 1000, f 18;
#X obj 394 334 / 1.05;
#X obj 486 405 *~, f 28;
#X obj 486 356 bp~ 100 1000, f 18;
#X obj 618 332 / 1.05;
#X obj 363 139 mtof;
#X obj 363 205 line;
#X floatatom 390 238 5 0 0 0 - - -, f 5;
#X obj 512 140 mtof;
#X obj 512 206 line;
#X floatatom 539 239 5 0 0 0 - - -, f 5;
#X obj 486 379 *~ 0.8;
#X msg 514 109 88;
#X msg 365 108 78;
#X obj 262 381 *~ 5;
#X obj 36 383 *~ 20;
#X connect 0 0 12 0;
#X connect 1 0 7 0;
#X connect 2 0 0 1;
#X connect 2 0 16 1;
#X connect 2 0 19 1;
#X connect 3 0 2 0;
#X connect 3 0 2 1;
#X connect 4 0 13 0;
#X connect 4 1 14 0;
#X connect 4 1 30 0;
#X connect 4 1 29 0;
#X connect 5 0 6 0;
#X connect 5 0 17 0;
#X connect 5 0 20 0;
#X connect 6 0 32 0;
#X connect 7 0 6 1;
#X connect 7 0 8 0;
#X connect 7 0 9 0;
#X connect 9 0 6 2;
#X connect 10 0 4 0;
#X connect 10 1 15 0;
#X connect 11 0 10 0;
#X connect 13 0 3 0;
#X connect 14 0 1 0;
#X connect 15 0 3 0;
#X connect 16 0 12 0;
#X connect 17 0 31 0;
#X connect 18 0 17 2;
#X connect 19 0 12 0;
#X connect 20 0 28 0;
#X connect 21 0 20 2;
#X connect 22 0 23 0;
#X connect 23 0 24 0;
#X connect 23 0 17 1;
#X connect 23 0 18 0;
#X connect 25 0 26 0;
#X connect 26 0 27 0;
#X connect 26 0 20 1;
#X connect 26 0 21 0;
#X connect 28 0 19 0;
#X connect 29 0 25 0;
#X connect 30 0 22 0;
#X connect 31 0 16 0;
#X connect 32 0 0 0;
#X restore 60 518 pd la;
#X text 271 251 sensor 5;
#X obj 102 286 == 2;
#X obj 158 285 == 3;
#X obj 218 288 == 4;
#X obj 281 288 == 5;
#X obj 342 287 == 6;
#X obj 61 460 < 240;
#X obj 117 461 < 240;
#X obj 177 460 < 240;
#X obj 240 460 < 240;
#X obj 301 461 < 240;
#X obj 621 899 vu 15 120 empty empty -1 -8 0 10 -66577 -1 1 0;
#X obj 617 847 env~;
#X floatatom 660 869 5 0 0 0 - - -, f 5;
#X obj 617 869 - 100;
#X obj 619 405 spigot;
#X floatatom 618 483 5 0 0 0 - - -, f 5;
#X text 695 381 sensor 1;
#X obj 658 380 == 1;
#X floatatom 619 431 5 0 0 0 - - -, f 5;
#X text 381 125 serial receive \, byte and sensor number detection
, f 15;
#X floatatom 477 485 5 0 0 0 - - -, f 5;
#X text 58 255 sensor 2;
#X text 135 253 sensor 3;
#X text 204 251 sensor 4;
#X text 339 249 sensor 6;
#X msg 746 691 \$1 20;
#X obj 746 715 line~;
#X msg 1019 692 \$1 20;
#X obj 1019 716 line~;
#N canvas 863 226 1097 701 MAIN_SOUND 1;
#X obj 49 151 mod 100;
#X floatatom 341 206 5 0 0 0 - - -, f 5;
#X text 383 331 oct;
#X obj 341 305 * -12;
#X floatatom 341 330 5 0 0 0 - - -, f 5;
#X obj 49 180 div 20;
#N canvas 2 95 450 300 PentaCH 0;
#X obj 47 64 inlet;
#X obj 57 186 outlet;
#X obj 47 97 sel 0 1 2 3 4, f 44;
#X msg 47 119 2;
#X msg 108 121 4;
#X msg 168 120 7;
#X msg 230 122 9;
#X msg 291 122 11;
#X connect 0 0 2 0;
#X connect 2 0 3 0;
#X connect 2 1 4 0;
#X connect 2 2 5 0;
#X connect 2 3 6 0;
#X connect 2 4 7 0;
#X connect 3 0 1 0;
#X connect 4 0 1 0;
#X connect 5 0 1 0;
#X connect 6 0 1 0;
#X connect 7 0 1 0;
#X restore 49 352 pd PentaCH;
#X floatatom 49 412 5 0 0 0 - - -, f 5;
#X msg 49 435 next \$1;
#X obj 49 386 +, f 15;
#X obj 49 300 spigot;
#X obj 88 274 !=;
#X obj 49 231 t f f, f 6;
#X floatatom 195 412 5 0 0 0 - - -, f 5;
#X obj 195 389 +, f 21;
#X obj 195 327 spigot;
#X obj 234 300 !=;
#X obj 195 260 t f f, f 6;
#X obj 195 150 mod 115;
#N canvas 0 50 450 300 PentaCH2 0;
#X obj 47 64 inlet;
#X obj 57 186 outlet;
#X obj 47 97 sel 0 1 2 3 4, f 44;
#X msg 47 119 7;
#X msg 108 121 9;
#X msg 168 120 11;
#X msg 230 122 2;
#X msg 291 122 4;
#X connect 0 0 2 0;
#X connect 2 0 3 0;
#X connect 2 1 4 0;
#X connect 2 2 5 0;
#X connect 2 3 6 0;
#X connect 2 4 7 0;
#X connect 3 0 1 0;
#X connect 4 0 1 0;
#X connect 5 0 1 0;
#X connect 6 0 1 0;
#X connect 7 0 1 0;
#X restore 195 353 pd PentaCH2;
#X obj 195 238 * -1;
#X msg 195 436 next \$1;
#X obj 195 207 - 4;
#X floatatom 341 268 5 0 0 0 - - -, f 5;
#X obj 407 415 noise~;
#X obj 407 446 bp~ 100 1000, f 18;
#X obj 469 300 line;
#X floatatom 496 333 5 0 0 0 - - -, f 5;
#X msg 469 263 \$1 125;
#X obj 469 234 abs;
#X obj 539 422 / 1.05;
#X obj 469 143 f;
#X obj 341 180 div 150;
#X obj 48 470 clone CoreSin 20;
#X obj 195 178 div 24;
#X obj 469 201 * -2.8;
#X msg 606 456 clear;
#X obj 406 528 biquad~ 1.92069 -0.925384 0.916437 -1.82841 0.916437
;
#X obj 469 167 - 620;
#X obj 49 89 inlet;
#X obj 469 85 inlet;
#X obj 263 588 outlet~;
#X obj 194 458 clone Core2 20;
#N canvas 0 23 959 847 smooth 0;
#X obj 53 14 inlet;
#X obj 99 119 f;
#X obj 53 79 t f f b;
#X obj 76 248 -, f 4;
#X obj 76 270 abs;
#X obj 164 175 f;
#X obj 142 251 -, f 4;
#X obj 142 273 abs;
#X obj 99 146 t f f f b, f 10;
#X obj 229 227 f;
#X obj 208 284 -, f 4;
#X obj 208 306 abs;
#X obj 164 198 t f f f b, f 10;
#X obj 140 675 +;
#X obj 74 697 +;
#X obj 74 800 outlet;
#X obj 297 289 f;
#X obj 274 353 -, f 4;
#X obj 274 375 abs;
#X obj 230 252 t f f f b, f 10;
#X obj 364 348 f;
#X obj 342 443 -, f 4;
#X obj 342 465 abs;
#X obj 298 313 t f f f b, f 10;
#X obj 274 626 +;
#X obj 208 646 +;
#X obj 430 421 f;
#X obj 408 516 -, f 4;
#X obj 408 538 abs;
#X obj 364 386 t f f f b, f 10;
#X obj 495 508 f;
#X obj 473 535 -, f 4;
#X obj 473 557 abs;
#X obj 429 473 t f f f b, f 10;
#X obj 408 585 +;
#X obj 342 603 +;
#X obj 319 115 inlet;
#X obj 138 419 +;
#X obj 319 174 + 1;
#X obj 274 459 + 0;
#X obj 74 761 *;
#X obj 319 152 random 200;
#X obj 319 196 / 100;
#X obj 74 731 / 75;
#X connect 0 0 2 0;
#X connect 1 0 8 0;
#X connect 2 0 1 1;
#X connect 2 1 3 0;
#X connect 2 2 1 0;
#X connect 3 0 4 0;
#X connect 4 0 14 0;
#X connect 5 0 12 0;
#X connect 6 0 7 0;
#X connect 7 0 37 0;
#X connect 8 0 3 1;
#X connect 8 1 5 1;
#X connect 8 2 6 0;
#X connect 8 3 5 0;
#X connect 9 0 19 0;
#X connect 10 0 11 0;
#X connect 11 0 25 0;
#X connect 12 0 6 1;
#X connect 12 1 9 1;
#X connect 12 2 10 0;
#X connect 12 3 9 0;
#X connect 13 0 14 1;
#X connect 14 0 43 0;
#X connect 16 0 23 0;
#X connect 17 0 18 0;
#X connect 18 0 39 0;
#X connect 19 0 10 1;
#X connect 19 1 16 1;
#X connect 19 2 17 0;
#X connect 19 3 16 0;
#X connect 20 0 29 0;
#X connect 21 0 22 0;
#X connect 22 0 35 0;
#X connect 23 0 17 1;
#X connect 23 1 20 1;
#X connect 23 2 21 0;
#X connect 23 3 20 0;
#X connect 24 0 25 1;
#X connect 25 0 13 1;
#X connect 26 0 33 0;
#X connect 27 0 28 0;
#X connect 28 0 34 0;
#X connect 29 0 21 1;
#X connect 29 1 26 1;
#X connect 29 2 27 0;
#X connect 29 3 26 0;
#X connect 30 0 31 1;
#X connect 31 0 32 0;
#X connect 32 0 34 1;
#X connect 33 0 27 1;
#X connect 33 1 30 1;
#X connect 33 2 31 0;
#X connect 33 3 30 0;
#X connect 34 0 35 1;
#X connect 35 0 24 1;
#X connect 36 0 41 0;
#X connect 37 0 13 0;
#X connect 38 0 42 0;
#X connect 39 0 24 0;
#X connect 40 0 15 0;
#X connect 41 0 38 0;
#X connect 42 0 37 1;
#X connect 43 0 40 0;
#X connect 43 0 40 1;
#X restore 617 174 pd smooth;
#X floatatom 617 195 5 0 0 0 - - -, f 5;
#X obj 616 150 f;
#X obj 49 116 t f f f f f, f 84;
#X obj 617 349 line~;
#X obj 48 501 *~;
#X obj 192 493 *~;
#X obj 341 232 - 8;
#X msg 617 321 \$1 50;
#X obj 617 267 t f f;
#X floatatom 665 315 5 0 0 0 - - -, f 5;
#X obj 617 214 +;
#X obj 407 470 *~ 18;
#X obj 617 245 * 1.02;
#X obj 617 291 clip 0 0.9;
#X connect 0 0 5 0;
#X connect 1 0 50 0;
#X connect 3 0 4 0;
#X connect 4 0 9 1;
#X connect 4 0 14 1;
#X connect 5 0 12 0;
#X connect 6 0 9 0;
#X connect 7 0 8 0;
#X connect 8 0 33 0;
#X connect 9 0 7 0;
#X connect 10 0 6 0;
#X connect 11 0 10 1;
#X connect 12 0 10 0;
#X connect 12 0 11 1;
#X connect 12 1 11 0;
#X connect 13 0 21 0;
#X connect 14 0 13 0;
#X connect 15 0 19 0;
#X connect 16 0 15 1;
#X connect 17 0 15 0;
#X connect 17 0 16 1;
#X connect 17 1 16 0;
#X connect 18 0 34 0;
#X connect 19 0 14 0;
#X connect 20 0 17 0;
#X connect 21 0 42 0;
#X connect 22 0 20 0;
#X connect 23 0 3 0;
#X connect 24 0 25 0;
#X connect 25 0 55 0;
#X connect 26 0 25 1;
#X connect 26 0 27 0;
#X connect 26 0 30 0;
#X connect 28 0 26 0;
#X connect 29 0 28 0;
#X connect 30 0 25 2;
#X connect 31 0 38 0;
#X connect 32 0 1 0;
#X connect 33 0 48 0;
#X connect 34 0 22 0;
#X connect 35 0 29 0;
#X connect 36 0 37 0;
#X connect 37 0 41 0;
#X connect 38 0 35 0;
#X connect 39 0 46 0;
#X connect 40 0 31 0;
#X connect 40 0 45 0;
#X connect 40 0 43 1;
#X connect 42 0 49 0;
#X connect 43 0 44 0;
#X connect 44 0 54 0;
#X connect 45 0 43 0;
#X connect 46 0 0 0;
#X connect 46 1 18 0;
#X connect 46 2 32 0;
#X connect 46 3 31 1;
#X connect 46 4 45 1;
#X connect 47 0 48 1;
#X connect 47 0 49 1;
#X connect 48 0 37 0;
#X connect 49 0 37 0;
#X connect 50 0 23 0;
#X connect 51 0 47 0;
#X connect 52 0 57 0;
#X connect 52 1 54 1;
#X connect 54 0 56 0;
#X connect 55 0 37 0;
#X connect 56 0 52 0;
#X connect 57 0 51 0;
#X connect 57 0 53 0;
#X restore 477 554 pd MAIN_SOUND;
#X obj 477 460 clip 20 600;
#X obj 618 455 clip 20 600;
#X obj 436 778 hip~ 500;
#X obj 544 778 hip~ 500;
#X obj 436 816 lop~ 5000;
#X obj 544 816 lop~ 5000;
#X text 733 521 SEE INSIDE;
#X text 713 454 distance range;
#X obj 746 648 clip 0 1;
#X floatatom 746 670 5 0 0 0 - - -, f 5;
#X obj 1019 648 clip 0 1;
#X floatatom 1019 670 5 0 0 0 - - -, f 5;
#X obj 544 851 *~;
#X obj 436 851 *~;
#X obj 786 289 metro 120;
#N canvas 583 187 1097 701 MAIN_SOUND 0;
#X obj 49 151 mod 100;
#X floatatom 341 206 5 0 0 0 - - -, f 5;
#X text 383 331 oct;
#X obj 341 305 * -12;
#X floatatom 341 330 5 0 0 0 - - -, f 5;
#X obj 49 180 div 20;
#N canvas 2 95 450 300 PentaCH 0;
#X obj 47 64 inlet;
#X obj 57 186 outlet;
#X obj 47 97 sel 0 1 2 3 4, f 44;
#X msg 47 119 2;
#X msg 108 121 4;
#X msg 168 120 7;
#X msg 230 122 9;
#X msg 291 122 11;
#X connect 0 0 2 0;
#X connect 2 0 3 0;
#X connect 2 1 4 0;
#X connect 2 2 5 0;
#X connect 2 3 6 0;
#X connect 2 4 7 0;
#X connect 3 0 1 0;
#X connect 4 0 1 0;
#X connect 5 0 1 0;
#X connect 6 0 1 0;
#X connect 7 0 1 0;
#X restore 49 352 pd PentaCH;
#X floatatom 49 412 5 0 0 0 - - -, f 5;
#X msg 49 435 next \$1;
#X obj 49 386 +, f 15;
#X obj 49 300 spigot;
#X obj 88 274 !=;
#X obj 49 231 t f f, f 6;
#X floatatom 195 412 5 0 0 0 - - -, f 5;
#X obj 195 389 +, f 21;
#X obj 195 327 spigot;
#X obj 234 300 !=;
#X obj 195 260 t f f, f 6;
#X obj 195 150 mod 115;
#N canvas 0 50 450 300 PentaCH2 0;
#X obj 47 64 inlet;
#X obj 57 186 outlet;
#X obj 47 97 sel 0 1 2 3 4, f 44;
#X msg 47 119 7;
#X msg 108 121 9;
#X msg 168 120 11;
#X msg 230 122 2;
#X msg 291 122 4;
#X connect 0 0 2 0;
#X connect 2 0 3 0;
#X connect 2 1 4 0;
#X connect 2 2 5 0;
#X connect 2 3 6 0;
#X connect 2 4 7 0;
#X connect 3 0 1 0;
#X connect 4 0 1 0;
#X connect 5 0 1 0;
#X connect 6 0 1 0;
#X connect 7 0 1 0;
#X restore 195 353 pd PentaCH2;
#X obj 195 238 * -1;
#X msg 195 436 next \$1;
#X obj 195 207 - 4;
#X floatatom 341 268 5 0 0 0 - - -, f 5;
#X obj 407 415 noise~;
#X obj 407 446 bp~ 100 1000, f 18;
#X obj 469 300 line;
#X floatatom 496 333 5 0 0 0 - - -, f 5;
#X msg 469 263 \$1 125;
#X obj 469 234 abs;
#X obj 539 422 / 1.05;
#X obj 469 143 f;
#X obj 341 180 div 150;
#X obj 48 470 clone CoreSin 20;
#X obj 195 178 div 24;
#X obj 469 201 * -2.8;
#X msg 606 456 clear;
#X obj 406 528 biquad~ 1.92069 -0.925384 0.916437 -1.82841 0.916437
;
#X obj 469 167 - 620;
#X obj 49 89 inlet;
#X obj 469 85 inlet;
#X obj 263 588 outlet~;
#X obj 194 458 clone Core2 20;
#N canvas 0 23 959 847 smooth 0;
#X obj 53 14 inlet;
#X obj 99 119 f;
#X obj 53 79 t f f b;
#X obj 76 248 -, f 4;
#X obj 76 270 abs;
#X obj 164 175 f;
#X obj 142 251 -, f 4;
#X obj 142 273 abs;
#X obj 99 146 t f f f b, f 10;
#X obj 229 227 f;
#X obj 208 284 -, f 4;
#X obj 208 306 abs;
#X obj 164 198 t f f f b, f 10;
#X obj 140 675 +;
#X obj 74 697 +;
#X obj 74 800 outlet;
#X obj 297 289 f;
#X obj 274 353 -, f 4;
#X obj 274 375 abs;
#X obj 230 252 t f f f b, f 10;
#X obj 364 348 f;
#X obj 342 443 -, f 4;
#X obj 342 465 abs;
#X obj 298 313 t f f f b, f 10;
#X obj 274 626 +;
#X obj 208 646 +;
#X obj 430 421 f;
#X obj 408 516 -, f 4;
#X obj 408 538 abs;
#X obj 364 386 t f f f b, f 10;
#X obj 495 508 f;
#X obj 473 535 -, f 4;
#X obj 473 557 abs;
#X obj 429 473 t f f f b, f 10;
#X obj 408 585 +;
#X obj 342 603 +;
#X obj 397 105 inlet;
#X obj 138 419 +;
#X obj 319 174 + 1;
#X obj 274 459 + 0;
#X obj 74 761 *;
#X obj 74 731 / 120;
#X obj 319 152 random 20;
#X connect 0 0 2 0;
#X connect 1 0 8 0;
#X connect 2 0 1 1;
#X connect 2 1 3 0;
#X connect 2 2 1 0;
#X connect 3 0 4 0;
#X connect 4 0 14 0;
#X connect 5 0 12 0;
#X connect 6 0 7 0;
#X connect 7 0 37 0;
#X connect 8 0 3 1;
#X connect 8 1 5 1;
#X connect 8 2 6 0;
#X connect 8 3 5 0;
#X connect 9 0 19 0;
#X connect 10 0 11 0;
#X connect 11 0 25 0;
#X connect 12 0 6 1;
#X connect 12 1 9 1;
#X connect 12 2 10 0;
#X connect 12 3 9 0;
#X connect 13 0 14 1;
#X connect 14 0 41 0;
#X connect 16 0 23 0;
#X connect 17 0 18 0;
#X connect 18 0 39 0;
#X connect 19 0 10 1;
#X connect 19 1 16 1;
#X connect 19 2 17 0;
#X connect 19 3 16 0;
#X connect 20 0 29 0;
#X connect 21 0 22 0;
#X connect 22 0 35 0;
#X connect 23 0 17 1;
#X connect 23 1 20 1;
#X connect 23 2 21 0;
#X connect 23 3 20 0;
#X connect 24 0 25 1;
#X connect 25 0 13 1;
#X connect 26 0 33 0;
#X connect 27 0 28 0;
#X connect 28 0 34 0;
#X connect 29 0 21 1;
#X connect 29 1 26 1;
#X connect 29 2 27 0;
#X connect 29 3 26 0;
#X connect 30 0 31 1;
#X connect 31 0 32 0;
#X connect 32 0 34 1;
#X connect 33 0 27 1;
#X connect 33 1 30 1;
#X connect 33 2 31 0;
#X connect 33 3 30 0;
#X connect 34 0 35 1;
#X connect 35 0 24 1;
#X connect 36 0 42 0;
#X connect 37 0 13 0;
#X connect 38 0 37 1;
#X connect 39 0 24 0;
#X connect 40 0 15 0;
#X connect 41 0 40 0;
#X connect 41 0 40 1;
#X connect 42 0 38 0;
#X restore 617 174 pd smooth;
#X floatatom 617 195 5 0 0 0 - - -, f 5;
#X obj 616 150 f;
#X obj 49 116 t f f f f f, f 84;
#X msg 616 241 \$1 20;
#X obj 616 272 line~;
#X obj 48 501 *~;
#X obj 192 493 *~;
#X obj 341 232 - 8;
#X obj 617 214 clip 0 1;
#X obj 407 470 *~ 15;
#X connect 0 0 5 0;
#X connect 1 0 51 0;
#X connect 3 0 4 0;
#X connect 4 0 9 1;
#X connect 4 0 14 1;
#X connect 5 0 12 0;
#X connect 6 0 9 0;
#X connect 7 0 8 0;
#X connect 8 0 33 0;
#X connect 9 0 7 0;
#X connect 10 0 6 0;
#X connect 11 0 10 1;
#X connect 12 0 10 0;
#X connect 12 0 11 1;
#X connect 12 1 11 0;
#X connect 13 0 21 0;
#X connect 14 0 13 0;
#X connect 15 0 19 0;
#X connect 16 0 15 1;
#X connect 17 0 15 0;
#X connect 17 0 16 1;
#X connect 17 1 16 0;
#X connect 18 0 34 0;
#X connect 19 0 14 0;
#X connect 20 0 17 0;
#X connect 21 0 42 0;
#X connect 22 0 20 0;
#X connect 23 0 3 0;
#X connect 24 0 25 0;
#X connect 25 0 53 0;
#X connect 26 0 25 1;
#X connect 26 0 27 0;
#X connect 26 0 30 0;
#X connect 28 0 26 0;
#X connect 29 0 28 0;
#X connect 30 0 25 2;
#X connect 31 0 38 0;
#X connect 32 0 1 0;
#X connect 33 0 49 0;
#X connect 34 0 22 0;
#X connect 35 0 29 0;
#X connect 36 0 37 0;
#X connect 37 0 41 0;
#X connect 38 0 35 0;
#X connect 39 0 46 0;
#X connect 40 0 31 0;
#X connect 40 0 45 0;
#X connect 40 0 43 1;
#X connect 42 0 50 0;
#X connect 43 0 44 0;
#X connect 44 0 52 0;
#X connect 45 0 43 0;
#X connect 46 0 0 0;
#X connect 46 1 18 0;
#X connect 46 2 32 0;
#X connect 46 3 31 1;
#X connect 46 4 45 1;
#X connect 47 0 48 0;
#X connect 48 0 49 1;
#X connect 48 0 50 1;
#X connect 49 0 37 0;
#X connect 50 0 37 0;
#X connect 51 0 23 0;
#X connect 52 0 47 0;
#X connect 53 0 37 0;
#X restore 617 555 pd MAIN_SOUND;
#X obj 746 619 expr 1 + log10(1 -(($f1-80) / 580));
#X obj 1019 619 expr 1 + log10(1 -(($f1-80) / 580));
#X msg 403 544 0.9;
#X connect 0 0 16 0;
#X connect 1 0 16 0;
#X connect 2 0 3 0;
#X connect 2 0 15 0;
#X connect 7 0 6 0;
#X connect 7 0 60 1;
#X connect 7 0 61 1;
#X connect 8 0 28 0;
#X connect 9 0 11 0;
#X connect 10 0 9 1;
#X connect 11 0 31 0;
#X connect 12 0 13 0;
#X connect 13 0 57 0;
#X connect 14 0 121 0;
#X connect 15 0 117 0;
#X connect 16 0 34 0;
#X connect 17 0 8 1;
#X connect 17 0 56 0;
#X connect 18 0 27 0;
#X connect 18 1 19 0;
#X connect 19 0 20 0;
#X connect 20 0 30 0;
#X connect 21 0 22 0;
#X connect 21 1 20 1;
#X connect 22 0 25 0;
#X connect 22 1 32 1;
#X connect 24 0 23 0;
#X connect 25 0 24 0;
#X connect 25 1 26 0;
#X connect 26 0 23 0;
#X connect 27 0 32 0;
#X connect 28 0 69 0;
#X connect 28 1 54 0;
#X connect 29 0 18 0;
#X connect 30 0 21 0;
#X connect 31 0 36 0;
#X connect 31 0 37 0;
#X connect 31 0 41 0;
#X connect 31 0 44 0;
#X connect 31 0 46 0;
#X connect 31 0 48 0;
#X connect 31 0 87 0;
#X connect 33 0 11 1;
#X connect 34 0 9 0;
#X connect 34 1 8 0;
#X connect 34 2 17 0;
#X connect 35 0 29 0;
#X connect 36 0 38 0;
#X connect 37 0 39 0;
#X connect 38 0 78 0;
#X connect 39 0 103 0;
#X connect 40 0 37 1;
#X connect 41 0 42 0;
#X connect 42 0 79 0;
#X connect 43 0 60 0;
#X connect 43 0 61 0;
#X connect 44 0 45 0;
#X connect 45 0 80 0;
#X connect 46 0 47 0;
#X connect 47 0 81 0;
#X connect 48 0 49 0;
#X connect 49 0 82 0;
#X connect 51 0 52 0;
#X connect 51 0 53 0;
#X connect 53 0 50 0;
#X connect 54 0 55 0;
#X connect 55 0 40 0;
#X connect 55 0 73 0;
#X connect 55 0 74 0;
#X connect 55 0 75 0;
#X connect 55 0 76 0;
#X connect 55 0 77 0;
#X connect 55 0 90 0;
#X connect 56 0 10 0;
#X connect 57 0 2 0;
#X connect 57 0 62 0;
#X connect 58 0 60 0;
#X connect 58 0 61 0;
#X connect 59 0 60 0;
#X connect 59 0 61 0;
#X connect 60 0 105 0;
#X connect 61 0 106 0;
#X connect 62 0 16 0;
#X connect 63 0 58 0;
#X connect 64 0 43 0;
#X connect 65 0 70 0;
#X connect 66 0 59 0;
#X connect 67 0 71 0;
#X connect 69 0 33 0;
#X connect 70 0 60 0;
#X connect 70 0 61 0;
#X connect 71 0 60 0;
#X connect 71 0 61 0;
#X connect 73 0 36 1;
#X connect 74 0 41 1;
#X connect 75 0 44 1;
#X connect 76 0 46 1;
#X connect 77 0 48 1;
#X connect 78 0 67 0;
#X connect 79 0 66 0;
#X connect 80 0 65 0;
#X connect 81 0 64 0;
#X connect 82 0 63 0;
#X connect 84 0 85 0;
#X connect 84 0 86 0;
#X connect 86 0 83 0;
#X connect 87 0 91 0;
#X connect 88 0 118 0;
#X connect 88 0 120 0;
#X connect 90 0 87 1;
#X connect 91 0 104 0;
#X connect 93 0 102 0;
#X connect 93 0 119 0;
#X connect 98 0 99 0;
#X connect 99 0 116 1;
#X connect 100 0 101 0;
#X connect 101 0 115 1;
#X connect 102 0 105 0;
#X connect 103 0 93 0;
#X connect 104 0 88 0;
#X connect 105 0 107 0;
#X connect 106 0 108 0;
#X connect 107 0 51 0;
#X connect 107 0 116 0;
#X connect 108 0 84 0;
#X connect 108 0 115 0;
#X connect 111 0 112 0;
#X connect 112 0 98 0;
#X connect 113 0 114 0;
#X connect 114 0 100 0;
#X connect 115 0 5 1;
#X connect 116 0 5 0;
#X connect 117 0 102 1;
#X connect 117 0 118 1;
#X connect 118 0 106 0;
#X connect 119 0 111 0;
#X connect 120 0 113 0;
#X connect 121 0 7 0;
#X coords 0 0 1 1 85 60 0;
