#N canvas 2 95 641 356 10;
#X msg 156 26 devices;
#X msg 294 26 close;
#X obj 441 33 tgl 15 0 empty empty empty 17 7 0 10 -262144 -1 -1 1
1;
#X msg 441 63 \; pd dsp \$1;
#X obj 293 1015 env~;
#X floatatom 336 1037 5 0 0 0 - - -, f 5;
#X obj 293 1037 - 100;
#X obj 296 1079 vu 15 120 empty empty -1 -8 0 10 -66577 -1 1 0;
#X text 72 478 cm, f 3;
#X obj 17 1083 dac~ 1 2, f 12;
#X obj 23 587 mod 100;
#X text 342 246 from 20 to 700 cm;
#X floatatom 315 642 5 0 0 0 - - -, f 5;
#X text 357 767 oct;
#X obj 315 741 * -12;
#X floatatom 315 766 5 0 0 0 - - -, f 5;
#X obj 23 616 div 20;
#N canvas 2 95 450 300 PentaCH 0;
#X obj 47 64 inlet;
#X obj 57 186 outlet;
#X obj 47 97 sel 0 1 2 3 4, f 44;
#X msg 47 119 2;
#X msg 108 121 4;
#X msg 168 120 7;
#X msg 230 122 9;
#X msg 291 122 11;
#X connect 0 0 2 0;
#X connect 2 0 3 0;
#X connect 2 1 4 0;
#X connect 2 2 5 0;
#X connect 2 3 6 0;
#X connect 2 4 7 0;
#X connect 3 0 1 0;
#X connect 4 0 1 0;
#X connect 5 0 1 0;
#X connect 6 0 1 0;
#X connect 7 0 1 0;
#X restore 23 788 pd PentaCH;
#X floatatom 23 848 5 0 0 0 - - -, f 5;
#X msg 23 871 next \$1;
#X floatatom -68 925 5 0 0 0 - - -, f 5;
#X obj 23 822 +, f 15;
#X obj 23 762 spigot;
#X obj 62 736 !=;
#X obj 23 693 t f f, f 6;
#X floatatom 169 848 5 0 0 0 - - -, f 5;
#X obj 169 825 +, f 21;
#X obj 169 763 spigot;
#X obj 208 736 !=;
#X obj 169 696 t f f, f 6;
#X obj 169 586 mod 115;
#X obj 169 614 div 23;
#N canvas 0 50 450 300 PentaCH2 0;
#X obj 47 64 inlet;
#X obj 57 186 outlet;
#X obj 47 97 sel 0 1 2 3 4, f 44;
#X msg 47 119 7;
#X msg 108 121 9;
#X msg 168 120 11;
#X msg 230 122 2;
#X msg 291 122 4;
#X connect 0 0 2 0;
#X connect 2 0 3 0;
#X connect 2 1 4 0;
#X connect 2 2 5 0;
#X connect 2 3 6 0;
#X connect 2 4 7 0;
#X connect 3 0 1 0;
#X connect 4 0 1 0;
#X connect 5 0 1 0;
#X connect 6 0 1 0;
#X connect 7 0 1 0;
#X restore 169 789 pd PentaCH2;
#X obj 23 552 t f f f f, f 63;
#X obj 169 674 * -1;
#X msg 169 872 next \$1;
#X obj -68 856 vsl 15 50 0 1 0 0 empty empty empty 0 -9 0 10 -262144
-1 -1 3430 1;
#X obj 169 643 - 4;
#X floatatom 315 707 5 0 0 0 - - -, f 5;
#X obj 248 116 spigot;
#X obj 193 219 spigot;
#X obj 354 183 * -1;
#X obj 194 253 +;
#X obj 381 851 noise~;
#X obj 381 882 bp~ 100 1000, f 18;
#X obj 443 736 line;
#X floatatom 470 769 5 0 0 0 - - -, f 5;
#X msg 442 708 \$1 125;
#X obj 441 -43 loadbang;
#X obj 441 -21 bng 15 250 50 0 empty empty empty 17 7 0 10 -262144
-1 -1;
#X obj 441 -1 delay 1000;
#X obj 17 989 *~ 0.5, f 8;
#X obj -69 811 loadbang;
#X obj 94 989 *~ 0.5, f 8;
#X obj 315 668 - 7;
#X obj 315 616 div 120;
#X obj 17 1030 hip~ 200;
#X obj 17 1054 lop~ 4000;
#X obj 94 1029 hip~ 200;
#X obj 94 1054 lop~ 4000;
#X obj 389 1014 env~;
#X floatatom 432 1036 5 0 0 0 - - -, f 5;
#X obj 389 1036 - 100;
#X obj 364 1076 vu 15 120 empty empty -1 -8 0 10 -66577 -1 1 0;
#X obj 381 906 *~ 40;
#X obj 442 670 abs;
#X obj 443 603 - 480;
#X obj 443 632 * -3.6;
#X msg -68 834 0.7;
#X obj 513 858 / 1.05;
#X obj 448 445 tgl 15 0 empty empty empty 17 7 0 10 -262144 -1 -1 1
1;
#X obj 22 906 clone CoreSin 20;
#X obj 168 894 clone Core2 20;
#X obj 443 579 f;
#X obj 224 50 comport 0 9600;
#X obj 354 94 & 128;
#X obj 903 80 t b b, f 14;
#X msg 983 108 1;
#X obj 983 129 + 0, f 9;
#X obj 983 171 t f f, f 9;
#X obj 983 192 sel 0;
#X obj 902 318 text define sensor-read;
#X msg 1092 246 clear;
#X obj 983 213 t b b;
#X msg 902 283 write /home/pi/Documents/MusicHall/sensor-log.txt;
#X obj 248 163 & 31;
#X obj 294 164 & 96;
#X obj 821 243 pack f f;
#X obj 903 214 list;
#X obj 248 138 t f f, f 7;
#X obj 903 59 metro 100;
#X obj 983 150 mod 51;
#X obj 23 456 spigot;
#X obj 201 449 spigot;
#X obj 889 468 spigot;
#X obj 62 429 == 0;
#X floatatom 23 478 5 0 0 0 - - -, f 5;
#X floatatom 201 471 5 0 0 0 - - -, f 5;
#X floatatom 889 490 5 0 0 0 - - -, f 5;
#X obj 903 246 text set sensor-read, f 23;
#X obj 240 424 == 1;
#X obj 294 191 >> 5;
#X obj 928 437 == 2;
#X text 101 429 sensor;
#X obj 381 965 clone Filterbank 7;
#X obj 595 869 noise~;
#X obj 595 900 bp~ 100 1000, f 18;
#X obj 657 754 line;
#X floatatom 684 787 5 0 0 0 - - -, f 5;
#X msg 656 726 \$1 125;
#X obj 595 924 *~ 40;
#X obj 656 688 abs;
#X obj 657 621 - 480;
#X obj 718 866 / 1.05;
#X obj 657 597 f;
#X obj 809 872 noise~;
#X obj 809 903 bp~ 100 1000, f 18;
#X obj 871 757 line;
#X floatatom 898 790 5 0 0 0 - - -, f 5;
#X msg 870 729 \$1 125;
#X obj 809 927 *~ 40;
#X obj 870 691 abs;
#X obj 871 624 - 480;
#X obj 941 879 / 1.05;
#X obj 871 600 f;
#X obj 657 650 * -1.6;
#X obj 871 653 * -2.6;
#X obj 248 190 << 7;
#X obj 443 521 metro 100;
#X obj 657 539 metro 100;
#X obj 871 542 metro 100;
#X obj 225 74 t f f f;
#X text 251 468 cm, f 3;
#X text 932 491 cm, f 3;
#X text 281 425 sensor;
#X text 972 439 sensor;
#X obj 354 161 - 128;
#X floatatom 111 72 5 0 0 0 - - -, f 5;
#X obj 748 772 spigot;
#X obj 787 745 !=;
#X obj 748 705 t f f, f 6;
#X obj 748 595 mod 115;
#X obj 748 623 div 23;
#X obj 748 683 * -1;
#X obj 748 652 - 4;
#X obj 962 597 mod 100;
#X obj 962 626 div 20;
#X obj 962 772 spigot;
#X obj 1001 746 !=;
#X obj 962 703 t f f, f 6;
#N canvas 2 95 450 300 PentaCH2 0;
#X obj 47 64 inlet;
#X obj 57 186 outlet;
#X obj 47 97 sel 0 1 2 3 4, f 44;
#X msg 47 119 2;
#X msg 108 121 4;
#X msg 168 120 7;
#X msg 230 122 9;
#X msg 291 122 11;
#X connect 0 0 2 0;
#X connect 2 0 3 0;
#X connect 2 1 4 0;
#X connect 2 2 5 0;
#X connect 2 3 6 0;
#X connect 2 4 7 0;
#X connect 3 0 1 0;
#X connect 4 0 1 0;
#X connect 5 0 1 0;
#X connect 6 0 1 0;
#X connect 7 0 1 0;
#X restore 962 798 pd PentaCH2;
#N canvas 0 50 450 300 PentaCH 0;
#X obj 47 64 inlet;
#X obj 57 186 outlet;
#X obj 47 97 sel 0 1 2 3 4, f 44;
#X msg 47 119 2;
#X msg 108 121 4;
#X msg 168 120 7;
#X msg 230 122 9;
#X msg 291 122 11;
#X connect 0 0 2 0;
#X connect 2 0 3 0;
#X connect 2 1 4 0;
#X connect 2 2 5 0;
#X connect 2 3 6 0;
#X connect 2 4 7 0;
#X connect 3 0 1 0;
#X connect 4 0 1 0;
#X connect 5 0 1 0;
#X connect 6 0 1 0;
#X connect 7 0 1 0;
#X restore 748 798 pd PentaCH;
#X msg 228 26 open 0;
#X connect 0 0 74 0;
#X connect 1 0 74 0;
#X connect 2 0 3 0;
#X connect 2 0 70 0;
#X connect 2 0 90 0;
#X connect 4 0 5 0;
#X connect 4 0 6 0;
#X connect 6 0 7 0;
#X connect 10 0 16 0;
#X connect 12 0 54 0;
#X connect 14 0 15 0;
#X connect 15 0 21 1;
#X connect 15 0 26 1;
#X connect 16 0 24 0;
#X connect 17 0 21 0;
#X connect 18 0 19 0;
#X connect 19 0 71 0;
#X connect 21 0 18 0;
#X connect 22 0 17 0;
#X connect 23 0 22 1;
#X connect 24 0 22 0;
#X connect 24 0 23 1;
#X connect 24 1 23 0;
#X connect 25 0 35 0;
#X connect 26 0 25 0;
#X connect 27 0 32 0;
#X connect 28 0 27 1;
#X connect 29 0 27 0;
#X connect 29 0 28 1;
#X connect 29 1 28 0;
#X connect 30 0 31 0;
#X connect 31 0 37 0;
#X connect 32 0 26 0;
#X connect 33 0 10 0;
#X connect 33 1 30 0;
#X connect 33 2 55 0;
#X connect 33 3 73 1;
#X connect 34 0 29 0;
#X connect 35 0 72 0;
#X connect 36 0 20 0;
#X connect 36 0 51 1;
#X connect 36 0 53 1;
#X connect 37 0 34 0;
#X connect 38 0 14 0;
#X connect 39 0 89 0;
#X connect 40 0 42 0;
#X connect 41 0 40 1;
#X connect 42 0 87 0;
#X connect 42 0 94 0;
#X connect 42 0 93 0;
#X connect 42 0 92 0;
#X connect 43 0 44 0;
#X connect 44 0 64 0;
#X connect 45 0 44 1;
#X connect 45 0 46 0;
#X connect 45 0 69 0;
#X connect 47 0 45 0;
#X connect 48 0 49 0;
#X connect 49 0 50 0;
#X connect 50 0 2 0;
#X connect 50 0 152 0;
#X connect 51 0 4 0;
#X connect 51 0 56 0;
#X connect 52 0 68 0;
#X connect 53 0 58 0;
#X connect 53 0 60 0;
#X connect 54 0 38 0;
#X connect 55 0 12 0;
#X connect 56 0 57 0;
#X connect 57 0 9 0;
#X connect 58 0 59 0;
#X connect 59 0 9 1;
#X connect 60 0 61 0;
#X connect 60 0 62 0;
#X connect 62 0 63 0;
#X connect 64 0 104 0;
#X connect 65 0 47 0;
#X connect 66 0 67 0;
#X connect 67 0 65 0;
#X connect 68 0 36 0;
#X connect 69 0 44 2;
#X connect 70 0 128 0;
#X connect 70 0 129 0;
#X connect 70 0 130 0;
#X connect 71 0 51 0;
#X connect 71 0 53 0;
#X connect 72 0 51 0;
#X connect 72 1 53 0;
#X connect 73 0 66 0;
#X connect 74 0 131 0;
#X connect 74 0 137 0;
#X connect 75 0 39 1;
#X connect 75 0 136 0;
#X connect 76 0 88 0;
#X connect 76 1 77 0;
#X connect 77 0 78 0;
#X connect 78 0 91 0;
#X connect 79 0 80 0;
#X connect 79 1 78 1;
#X connect 80 0 83 0;
#X connect 80 1 99 1;
#X connect 82 0 81 0;
#X connect 83 0 82 0;
#X connect 83 1 84 0;
#X connect 84 0 81 0;
#X connect 85 0 127 0;
#X connect 86 0 101 0;
#X connect 87 0 88 1;
#X connect 88 0 99 0;
#X connect 89 0 85 0;
#X connect 89 1 86 0;
#X connect 90 0 76 0;
#X connect 91 0 79 0;
#X connect 92 0 96 0;
#X connect 93 0 97 0;
#X connect 94 0 98 0;
#X connect 95 0 92 1;
#X connect 96 0 33 0;
#X connect 97 0 114 1;
#X connect 97 0 141 0;
#X connect 97 0 145 0;
#X connect 98 0 124 1;
#X connect 100 0 93 1;
#X connect 101 0 87 1;
#X connect 101 0 102 0;
#X connect 101 0 100 0;
#X connect 101 0 95 0;
#X connect 102 0 94 1;
#X connect 104 0 51 0;
#X connect 104 0 53 0;
#X connect 105 0 106 0;
#X connect 106 0 110 0;
#X connect 107 0 106 1;
#X connect 107 0 108 0;
#X connect 107 0 113 0;
#X connect 109 0 107 0;
#X connect 110 0 104 0;
#X connect 111 0 109 0;
#X connect 112 0 125 0;
#X connect 113 0 106 2;
#X connect 114 0 112 0;
#X connect 115 0 116 0;
#X connect 116 0 120 0;
#X connect 117 0 116 1;
#X connect 117 0 118 0;
#X connect 117 0 123 0;
#X connect 119 0 117 0;
#X connect 120 0 104 0;
#X connect 121 0 119 0;
#X connect 122 0 126 0;
#X connect 123 0 116 2;
#X connect 124 0 122 0;
#X connect 125 0 111 0;
#X connect 126 0 121 0;
#X connect 127 0 42 1;
#X connect 128 0 73 0;
#X connect 129 0 114 0;
#X connect 130 0 124 0;
#X connect 131 0 40 0;
#X connect 131 1 39 0;
#X connect 131 2 75 0;
#X connect 136 0 41 0;
#X connect 138 0 151 0;
#X connect 139 0 138 1;
#X connect 140 0 138 0;
#X connect 140 0 139 1;
#X connect 140 1 139 0;
#X connect 141 0 142 0;
#X connect 142 0 144 0;
#X connect 143 0 140 0;
#X connect 144 0 143 0;
#X connect 145 0 146 0;
#X connect 146 0 149 0;
#X connect 147 0 150 0;
#X connect 148 0 147 1;
#X connect 149 0 147 0;
#X connect 149 0 148 1;
#X connect 149 1 148 0;
#X connect 150 0 21 0;
#X connect 151 0 26 0;
#X connect 152 0 74 0;
#X coords 0 0 1 1 85 60 0;
