#N canvas 14 65 641 356 10;
#X msg 100 129 devices;
#X msg 238 129 close;
#X obj 367 119 tgl 15 0 empty empty empty 17 7 0 10 -262144 -1 -1 1
1;
#X msg 367 149 \; pd dsp \$1;
#X obj 390 927 env~;
#X floatatom 433 949 5 0 0 0 - - -, f 5;
#X obj 390 949 - 100;
#X obj 393 991 vu 15 120 empty empty -1 -8 0 10 -66577 -1 1 0;
#X text 163 362 cm;
#X floatatom 120 363 5 20 740 0 - - -, f 5;
#X obj 112 1021 dac~ 1 2;
#X obj 120 425 mod 100;
#X text 221 332 from 20 to 700 cm;
#X floatatom 412 480 5 0 0 0 - - -, f 5;
#X text 454 605 oct;
#X obj 412 579 * -12;
#X floatatom 412 604 5 0 0 0 - - -, f 5;
#X obj 120 454 div 20;
#N canvas 2 95 450 300 PentaCH 0;
#X obj 47 64 inlet;
#X obj 57 186 outlet;
#X obj 47 97 sel 0 1 2 3 4, f 44;
#X msg 47 119 2;
#X msg 108 121 4;
#X msg 168 120 7;
#X msg 230 122 9;
#X msg 291 122 11;
#X connect 0 0 2 0;
#X connect 2 0 3 0;
#X connect 2 1 4 0;
#X connect 2 2 5 0;
#X connect 2 3 6 0;
#X connect 2 4 7 0;
#X connect 3 0 1 0;
#X connect 4 0 1 0;
#X connect 5 0 1 0;
#X connect 7 0 1 0;
#X restore 120 626 pd PentaCH;
#X floatatom 120 686 5 0 0 0 - - -, f 5;
#X msg 120 709 next \$1;
#X floatatom 29 837 5 0 0 0 - - -, f 5;
#X obj 120 654 +, f 15;
#X obj 120 600 spigot;
#X obj 159 574 !=;
#X obj 120 531 t f f, f 6;
#X floatatom 266 686 5 0 0 0 - - -, f 5;
#X obj 266 655 +, f 21;
#X obj 266 601 spigot;
#X obj 305 574 !=;
#X obj 266 534 t f f, f 6;
#X obj 266 424 mod 115;
#X obj 266 452 div 23;
#N canvas 0 50 450 300 PentaCH2 0;
#X obj 47 64 inlet;
#X obj 57 186 outlet;
#X obj 47 97 sel 0 1 2 3 4, f 44;
#X msg 47 119 7;
#X msg 108 121 9;
#X msg 168 120 11;
#X msg 230 122 2;
#X msg 291 122 4;
#X connect 0 0 2 0;
#X connect 2 0 3 0;
#X connect 2 1 4 0;
#X connect 2 2 5 0;
#X connect 2 3 6 0;
#X connect 2 4 7 0;
#X connect 3 0 1 0;
#X connect 4 0 1 0;
#X connect 5 0 1 0;
#X connect 7 0 1 0;
#X restore 266 627 pd PentaCH2;
#X obj 120 390 t f f f f, f 63;
#X obj 266 512 * -1;
#X msg 266 710 next \$1;
#X obj 29 768 vsl 15 50 0 1 0 0 empty empty empty 0 -9 0 10 -262144
-1 -1 3430 1;
#X obj 266 481 - 4;
#X floatatom 412 545 5 0 0 0 - - -, f 5;
#X obj 120 261 spigot;
#X obj 209 241 tgl 15 0 empty empty empty 17 7 0 10 -262144 -1 -1 0
1;
#X obj 170 319 spigot;
#X obj 209 263 - 1;
#X obj 209 285 * -1;
#X obj 120 339 +;
#X obj 496 689 noise~;
#X obj 496 720 bp~ 100 1000, f 18;
#X obj 558 574 line;
#X floatatom 585 607 5 0 0 0 - - -, f 5;
#X msg 557 546 \$1 125;
#X obj 367 43 loadbang;
#X obj 367 65 bng 15 250 50 0 empty empty empty 17 7 0 10 -262144 -1
-1;
#X obj 367 85 delay 1000;
#X obj 120 882 *~ 0.5, f 8;
#X obj 28 723 loadbang;
#X obj 188 882 *~ 0.5, f 8;
#X msg 172 129 open 0;
#X obj 412 506 - 7;
#X obj 412 454 div 120;
#X obj 113 941 hip~ 200;
#X obj 113 965 lop~ 4000;
#X obj 190 941 hip~ 200;
#X obj 190 965 lop~ 4000;
#X obj 486 926 env~;
#X floatatom 529 948 5 0 0 0 - - -, f 5;
#X obj 486 948 - 100;
#X obj 461 988 vu 15 120 empty empty -1 -8 0 10 -66577 -1 1 0;
#X obj 496 744 *~ 40;
#X obj 496 766 clone Filterbank_mono 7;
#X obj 557 508 abs;
#X obj 558 441 - 480;
#X obj 558 470 * -3.6;
#X msg 29 746 0.7;
#X obj 628 696 / 1.05;
#X obj 588 320 tgl 15 0 empty empty empty 17 7 0 10 -262144 -1 -1 1
1;
#X obj 119 744 clone CoreSin 20;
#X obj 265 732 clone Core2 20;
#X obj 570 412 f;
#X obj 589 342 metro 75;
#X obj 168 153 comport 0 9600;
#X obj 171 179 t f f, f 6;
#X obj 210 198 & 128;
#X obj 210 220 / 128;
#X obj 120 310 << 7;
#X obj 120 283 & 127;
#X connect 0 0 80 0;
#X connect 1 0 80 0;
#X connect 2 0 3 0;
#X connect 2 0 75 0;
#X connect 4 0 5 0;
#X connect 4 0 6 0;
#X connect 6 0 7 0;
#X connect 9 0 34 0;
#X connect 11 0 17 0;
#X connect 13 0 58 0;
#X connect 15 0 16 0;
#X connect 16 0 22 1;
#X connect 16 0 27 1;
#X connect 17 0 25 0;
#X connect 18 0 22 0;
#X connect 19 0 20 0;
#X connect 20 0 76 0;
#X connect 22 0 19 0;
#X connect 23 0 18 0;
#X connect 24 0 23 1;
#X connect 25 0 23 0;
#X connect 25 0 24 1;
#X connect 25 1 24 0;
#X connect 26 0 36 0;
#X connect 27 0 26 0;
#X connect 28 0 33 0;
#X connect 29 0 28 1;
#X connect 30 0 28 0;
#X connect 30 0 29 1;
#X connect 30 1 29 0;
#X connect 31 0 32 0;
#X connect 32 0 38 0;
#X connect 33 0 27 0;
#X connect 34 0 11 0;
#X connect 34 1 31 0;
#X connect 34 2 59 0;
#X connect 34 3 78 1;
#X connect 35 0 30 0;
#X connect 36 0 77 0;
#X connect 37 0 21 0;
#X connect 37 0 54 1;
#X connect 37 0 56 1;
#X connect 38 0 35 0;
#X connect 39 0 15 0;
#X connect 40 0 85 0;
#X connect 41 0 40 1;
#X connect 41 0 43 0;
#X connect 42 0 45 1;
#X connect 43 0 44 0;
#X connect 44 0 42 1;
#X connect 45 0 9 0;
#X connect 46 0 47 0;
#X connect 47 0 68 0;
#X connect 48 0 47 1;
#X connect 48 0 49 0;
#X connect 48 0 74 0;
#X connect 50 0 48 0;
#X connect 51 0 52 0;
#X connect 52 0 53 0;
#X connect 53 0 57 0;
#X connect 53 0 2 0;
#X connect 54 0 4 0;
#X connect 54 0 60 0;
#X connect 55 0 73 0;
#X connect 56 0 62 0;
#X connect 56 0 64 0;
#X connect 57 0 80 0;
#X connect 58 0 39 0;
#X connect 59 0 13 0;
#X connect 60 0 61 0;
#X connect 61 0 10 0;
#X connect 62 0 63 0;
#X connect 63 0 10 1;
#X connect 64 0 65 0;
#X connect 64 0 66 0;
#X connect 66 0 67 0;
#X connect 68 0 69 0;
#X connect 69 0 54 0;
#X connect 69 0 56 0;
#X connect 70 0 50 0;
#X connect 71 0 72 0;
#X connect 72 0 70 0;
#X connect 73 0 37 0;
#X connect 74 0 47 2;
#X connect 75 0 79 0;
#X connect 76 0 54 0;
#X connect 76 0 56 0;
#X connect 77 0 54 0;
#X connect 77 1 56 0;
#X connect 78 0 71 0;
#X connect 79 0 78 0;
#X connect 80 0 81 0;
#X connect 81 0 42 0;
#X connect 81 0 40 0;
#X connect 81 1 82 0;
#X connect 82 0 83 0;
#X connect 83 0 41 0;
#X connect 84 0 45 0;
#X connect 85 0 84 0;
#X coords 0 0 1 1 85 60 0;
